<svg width="216" height="216" viewBox="0 0 216 216" fill="none" xmlns="http://www.w3.org/2000/svg">
<mask id="mask0_503_16559" style="mask-type:luminance" maskUnits="userSpaceOnUse" x="19" y="24" width="175" height="112">
<path fill-rule="evenodd" clip-rule="evenodd" d="M193.5 24.1501H19.5V135.15H47.8252C44.0831 126.869 42.0001 117.678 42.0001 108C42.0001 71.5492 71.5493 42 108 42C144.451 42 174 71.5492 174 108C174 117.678 171.917 126.869 168.175 135.15H193.5V24.1501Z" fill="white"/>
</mask>
<g mask="url(#mask0_503_16559)">
<path fill-rule="evenodd" clip-rule="evenodd" d="M174.036 71.351C174.036 69.8712 174.934 68.5395 176.306 67.9852L189.156 62.7943C190.588 62.216 192.15 63.2698 192.15 64.8138V121.334C192.15 122.814 191.252 124.146 189.88 124.7L174.036 131.1V71.351Z" fill="url(#paint0_linear_503_16559)" stroke="url(#paint1_linear_503_16559)" stroke-width="3.63" stroke-linecap="round" stroke-linejoin="round"/>
<mask id="mask1_503_16559" style="mask-type:luminance" maskUnits="userSpaceOnUse" x="172" y="60" width="22" height="73">
<path fill-rule="evenodd" clip-rule="evenodd" d="M174.036 71.351C174.036 69.8712 174.934 68.5395 176.306 67.9852L189.156 62.7943C190.588 62.216 192.15 63.2698 192.15 64.8138V121.334C192.15 122.814 191.252 124.146 189.88 124.7L174.036 131.1V71.351Z" fill="white" stroke="white" stroke-width="3.63" stroke-linecap="round" stroke-linejoin="round"/>
</mask>
<g mask="url(#mask1_503_16559)">
<g style="mix-blend-mode:multiply" opacity="0.6" filter="url(#filter0_i_503_16559)">
<path d="M175.847 93.9029L196.47 85.2252C197.393 84.8367 197.83 83.7656 197.445 82.833C197.06 81.9004 196 81.4594 195.076 81.848L173.339 90.9947C172.664 91.2788 175.847 93.9029 175.847 93.9029Z" fill="#FABC10"/>
</g>
<g style="mix-blend-mode:multiply" opacity="0.6" filter="url(#filter1_i_503_16559)">
<path d="M172.225 115.855L192.847 107.178C193.77 106.789 194.207 105.718 193.822 104.785C193.437 103.853 192.377 103.412 191.453 103.8L169.716 112.947C169.041 113.231 172.225 115.855 172.225 115.855Z" fill="#FABC10"/>
</g>
<g opacity="0.2">
<circle cx="82.5" cy="82.5" r="82.5" transform="matrix(-1 0 0 1 189.879 27.8782)" fill="#A4053A" fill-opacity="0.2" style="mix-blend-mode:multiply"/>
</g>
</g>
<path fill-rule="evenodd" clip-rule="evenodd" d="M41.9642 71.351C41.9642 69.8712 41.0659 68.5395 39.6938 67.9852L26.8438 62.7943C25.4122 62.216 23.85 63.2698 23.85 64.8138V121.334C23.85 122.814 24.7483 124.146 26.1204 124.7L41.9642 131.1V71.351Z" fill="url(#paint2_linear_503_16559)" stroke="url(#paint3_linear_503_16559)" stroke-width="3.63" stroke-linecap="round" stroke-linejoin="round"/>
<mask id="mask2_503_16559" style="mask-type:luminance" maskUnits="userSpaceOnUse" x="22" y="60" width="22" height="73">
<path fill-rule="evenodd" clip-rule="evenodd" d="M41.9642 71.351C41.9642 69.8712 41.0659 68.5395 39.6938 67.9852L26.8438 62.7943C25.4122 62.216 23.85 63.2698 23.85 64.8138V121.334C23.85 122.814 24.7483 124.146 26.1204 124.7L41.9642 131.1V71.351Z" fill="white" stroke="white" stroke-width="3.63" stroke-linecap="round" stroke-linejoin="round"/>
</mask>
<g mask="url(#mask2_503_16559)">
<g style="mix-blend-mode:multiply" opacity="0.6" filter="url(#filter2_i_503_16559)">
<path d="M40.1528 93.9029L19.5305 85.2252C18.6071 84.8367 18.1704 83.7656 18.5552 82.833C18.9399 81.9004 20.0005 81.4594 20.9239 81.848L42.6609 90.9947C43.3359 91.2788 40.1528 93.9029 40.1528 93.9029Z" fill="#FABC10"/>
</g>
<g style="mix-blend-mode:multiply" opacity="0.6" filter="url(#filter3_i_503_16559)">
<path d="M43.7756 115.855L23.1533 107.178C22.2299 106.789 21.7932 105.718 22.178 104.785C22.5627 103.853 23.6233 103.412 24.5467 103.8L46.2837 112.947C46.9587 113.231 43.7756 115.855 43.7756 115.855Z" fill="#FABC10"/>
</g>
<g opacity="0.2">
<circle cx="108" cy="110.378" r="82.5" fill="#A4053A" fill-opacity="0.2" style="mix-blend-mode:multiply"/>
</g>
</g>
<path fill-rule="evenodd" clip-rule="evenodd" d="M157.895 35.2753C157.895 32.8597 155.579 31.1179 153.258 31.7876L107.175 45.0846L61.0919 31.7876C58.7709 31.1179 56.4555 32.8597 56.4555 35.2753V89.0177C56.4555 91.0225 58.0807 92.6477 60.0855 92.6477H154.265C156.269 92.6477 157.895 91.0225 157.895 89.0177V35.2753Z" fill="url(#paint4_linear_503_16559)" stroke="url(#paint5_linear_503_16559)" stroke-width="3.63" stroke-linecap="round" stroke-linejoin="round"/>
</g>
<path fill-rule="evenodd" clip-rule="evenodd" d="M108 185.55C118.01 185.55 127.577 183.653 136.361 180.2L152.55 189.547C153.571 190.137 154.829 190.137 155.85 189.547L175.413 178.252C176.434 177.663 177.063 176.573 177.063 175.394V152.805C177.063 151.626 176.434 150.537 175.413 149.947L173.821 149.028C181.254 137.127 185.55 123.065 185.55 108C185.55 65.17 150.83 30.4497 108 30.4497C65.1704 30.4497 30.4501 65.17 30.4501 108C30.4501 150.829 65.1704 185.55 108 185.55ZM131.337 169.756C124.082 172.499 116.216 174 108 174C71.5493 174 42.0001 144.451 42.0001 108C42.0001 71.5492 71.5493 42 108 42C144.451 42 174 71.5492 174 108C174 120.961 170.264 133.05 163.81 143.248L155.85 138.652C154.829 138.063 153.571 138.063 152.55 138.652L132.987 149.947C131.966 150.537 131.337 151.626 131.337 152.805V169.756Z" fill="url(#paint6_linear_503_16559)"/>
<mask id="mask3_503_16559" style="mask-type:luminance" maskUnits="userSpaceOnUse" x="30" y="30" width="156" height="160">
<path fill-rule="evenodd" clip-rule="evenodd" d="M108 185.55C118.01 185.55 127.577 183.653 136.361 180.2L152.55 189.547C153.571 190.137 154.829 190.137 155.85 189.547L175.413 178.252C176.434 177.663 177.063 176.573 177.063 175.394V152.805C177.063 151.626 176.434 150.537 175.413 149.947L173.821 149.028C181.254 137.127 185.55 123.065 185.55 108C185.55 65.17 150.83 30.4497 108 30.4497C65.1704 30.4497 30.4501 65.17 30.4501 108C30.4501 150.829 65.1704 185.55 108 185.55ZM131.337 169.756C124.082 172.499 116.216 174 108 174C71.5493 174 42.0001 144.451 42.0001 108C42.0001 71.5492 71.5493 42 108 42C144.451 42 174 71.5492 174 108C174 120.961 170.264 133.05 163.81 143.248L155.85 138.652C154.829 138.063 153.571 138.063 152.55 138.652L132.987 149.947C131.966 150.537 131.337 151.626 131.337 152.805V169.756Z" fill="white"/>
</mask>
<g mask="url(#mask3_503_16559)">
<g style="mix-blend-mode:multiply" opacity="0.3">
<path fill-rule="evenodd" clip-rule="evenodd" d="M132 18L108 108L108.001 108L154.669 27.3897L188.61 61.3308L108.002 108L198 84V132L108.001 108L108 108L108 108L108 108L108 108L108 108L18.0001 132L18.0001 84L107.999 108L27.3901 61.3313L61.3312 27.3902L108 108L84.0001 18H132ZM108 108L84.0001 198H132L108 108ZM108 108L61.3312 188.61L27.39 154.669L108 108Z" fill="#FFD640"/>
</g>
</g>
<path d="M47.8884 153.826C61.8208 172.116 83.6925 183.9 108.285 183.9C112.519 183.9 116.672 183.551 120.718 182.879" stroke="url(#paint7_linear_503_16559)" stroke-width="3.465" stroke-linecap="round" stroke-linejoin="round"/>
<path opacity="0.4" d="M183.9 108C183.9 66.0814 149.919 32.0999 108 32.0999C66.0819 32.0999 32.1003 66.0814 32.1003 108" stroke="white" stroke-width="3.3" stroke-linecap="round" stroke-linejoin="round"/>
<path opacity="0.4" d="M161.334 143.905C159.372 142.773 155.448 140.507 155.448 140.507C154.682 140.065 153.739 140.065 152.973 140.507C150.672 141.835 149.042 142.776 148.082 143.331C146.085 144.484 144.455 145.425 143.192 146.154C141.018 147.409 137.757 149.292 133.41 151.802" stroke="white" stroke-width="3.3" stroke-linecap="round"/>
<path opacity="0.4" d="M175.65 165.09V175.514C175.65 176.108 175.331 176.656 174.814 176.949L155.448 187.935C154.682 188.377 153.739 188.377 152.973 187.935C150.672 186.606 149.042 185.665 148.082 185.111C146.085 183.958 144.455 183.016 143.191 182.287" stroke="#FDB115" stroke-width="3.3" stroke-linecap="round" stroke-linejoin="round"/>
<path d="M152.973 140.506C150.672 141.835 149.042 142.776 148.082 143.33" stroke="white" stroke-width="3.3" stroke-linecap="round"/>
<path opacity="0.2" d="M43.8117 129.422C52.7725 156.285 78.1247 175.65 108 175.65C112.015 175.65 115.949 175.301 119.772 174.63" stroke="#EDAA2F" stroke-width="3.3" stroke-linecap="round" stroke-linejoin="round"/>
<path opacity="0.6" d="M73.2851 166.076C83.434 172.156 95.3089 175.65 108 175.65" stroke="white" stroke-width="3.3" stroke-linecap="round" stroke-linejoin="round"/>
<path opacity="0.2" d="M45.7544 81.4598C56.0733 57.2897 80.0583 40.3499 108 40.3499C135.942 40.3499 159.927 57.2897 170.245 81.4598" stroke="#DA731B" stroke-width="3.3" stroke-linecap="round" stroke-linejoin="round"/>
<path opacity="0.2" d="M73.2851 49.9241C83.434 43.8446 95.3089 40.3499 108 40.3499C120.691 40.3499 132.566 43.8446 142.715 49.9241" stroke="#DA731B" stroke-width="3.3" stroke-linecap="round" stroke-linejoin="round"/>
<g filter="url(#filter4_d_503_16559)">
<path fill-rule="evenodd" clip-rule="evenodd" d="M153.375 150.075L165.75 164.1L153.375 178.125L141 164.1L153.375 150.075Z" fill="black" fill-opacity="0.01"/>
</g>
<g filter="url(#filter5_i_503_16559)">
<path fill-rule="evenodd" clip-rule="evenodd" d="M153.375 150.075L165.75 164.1L153.375 178.125L141 164.1L153.375 150.075Z" fill="url(#paint8_linear_503_16559)"/>
</g>
<path fill-rule="evenodd" clip-rule="evenodd" d="M153.375 150.075L165.75 164.1L153.375 178.125L141 164.1L153.375 150.075Z" stroke="white" stroke-width="3.3" stroke-linecap="round" stroke-linejoin="round"/>
<path fill-rule="evenodd" clip-rule="evenodd" d="M153.375 151.478L164.375 164.1L153.375 176.723L142.375 164.1L153.375 151.478Z" fill="#009EF7"/>
<path fill-rule="evenodd" clip-rule="evenodd" d="M153.375 151.478L149.447 164.1H142.375L153.375 151.478Z" fill="url(#paint9_linear_503_16559)"/>
<path fill-rule="evenodd" clip-rule="evenodd" d="M153.375 151.478L149.447 164.1H157.304L153.375 151.478Z" fill="url(#paint10_linear_503_16559)"/>
<path fill-rule="evenodd" clip-rule="evenodd" d="M153.375 151.478L164.375 164.1H157.304L153.375 151.478Z" fill="url(#paint11_linear_503_16559)"/>
<path fill-rule="evenodd" clip-rule="evenodd" d="M153.375 176.723L149.447 164.1H142.375L153.375 176.723Z" fill="url(#paint12_linear_503_16559)"/>
<path fill-rule="evenodd" clip-rule="evenodd" d="M153.375 176.723L149.447 164.1H157.304L153.375 176.723Z" fill="url(#paint13_linear_503_16559)"/>
<path fill-rule="evenodd" clip-rule="evenodd" d="M153.375 176.723L164.375 164.1H157.304L153.375 176.723Z" fill="url(#paint14_linear_503_16559)"/>
<g filter="url(#filter6_d_503_16559)">
<path fill-rule="evenodd" clip-rule="evenodd" d="M132.353 156.097L131.639 155.815C131.202 155.643 130.988 155.149 131.16 154.713C131.246 154.493 131.42 154.32 131.639 154.234L132.353 153.952C133.176 153.627 133.828 152.975 134.153 152.152L134.435 151.438C134.607 151.001 135.1 150.787 135.537 150.959C135.756 151.045 135.93 151.219 136.016 151.438L136.298 152.152C136.622 152.975 137.274 153.627 138.098 153.952L138.812 154.234C139.249 154.406 139.463 154.9 139.291 155.336C139.204 155.555 139.031 155.729 138.812 155.815L138.098 156.097C137.274 156.422 136.622 157.073 136.298 157.897L136.016 158.611C135.844 159.048 135.35 159.262 134.913 159.09C134.694 159.004 134.521 158.83 134.435 158.611L134.153 157.897C133.828 157.073 133.176 156.422 132.353 156.097Z" fill="white"/>
</g>
<g filter="url(#filter7_d_503_16559)">
<path fill-rule="evenodd" clip-rule="evenodd" d="M172.203 152.187L171.346 151.849C170.822 151.642 170.565 151.05 170.772 150.525C170.875 150.263 171.083 150.054 171.346 149.951L172.203 149.613C173.191 149.223 173.974 148.441 174.363 147.453L174.701 146.596C174.908 146.072 175.5 145.814 176.024 146.021C176.287 146.125 176.495 146.333 176.599 146.596L176.937 147.453C177.327 148.441 178.109 149.223 179.097 149.613L179.954 149.951C180.478 150.157 180.735 150.75 180.529 151.274C180.425 151.537 180.217 151.745 179.954 151.849L179.097 152.187C178.109 152.576 177.327 153.359 176.937 154.347L176.599 155.204C176.392 155.728 175.8 155.985 175.276 155.778C175.013 155.675 174.805 155.467 174.701 155.204L174.363 154.347C173.974 153.359 173.191 152.576 172.203 152.187Z" fill="white"/>
</g>
<g filter="url(#filter8_d_503_16559)">
<path fill-rule="evenodd" clip-rule="evenodd" d="M130.953 180.237L130.096 179.899C129.572 179.692 129.315 179.1 129.522 178.576C129.625 178.313 129.833 178.105 130.096 178.001L130.953 177.663C131.941 177.273 132.724 176.491 133.113 175.503L133.451 174.646C133.658 174.122 134.25 173.865 134.774 174.071C135.037 174.175 135.245 174.383 135.349 174.646L135.687 175.503C136.077 176.491 136.859 177.273 137.847 177.663L138.704 178.001C139.228 178.208 139.485 178.8 139.279 179.324C139.175 179.587 138.967 179.795 138.704 179.899L137.847 180.237C136.859 180.627 136.077 181.409 135.687 182.397L135.349 183.254C135.142 183.778 134.55 184.035 134.026 183.829C133.763 183.725 133.555 183.517 133.451 183.254L133.113 182.397C132.724 181.409 131.941 180.627 130.953 180.237Z" fill="white"/>
</g>
<g filter="url(#filter9_d_503_16559)">
<path fill-rule="evenodd" clip-rule="evenodd" d="M169.802 177.118L169.373 176.949C169.111 176.846 168.982 176.55 169.086 176.288C169.138 176.156 169.242 176.052 169.373 176.001L169.802 175.832C170.296 175.637 170.687 175.246 170.882 174.751L171.051 174.323C171.154 174.061 171.45 173.932 171.712 174.036C171.844 174.088 171.948 174.192 171.999 174.323L172.168 174.751C172.363 175.246 172.754 175.637 173.249 175.832L173.677 176.001C173.939 176.104 174.068 176.4 173.964 176.662C173.912 176.794 173.808 176.898 173.677 176.949L173.249 177.118C172.754 177.313 172.363 177.704 172.168 178.199L171.999 178.627C171.896 178.889 171.6 179.018 171.338 178.914C171.206 178.862 171.102 178.758 171.051 178.627L170.882 178.199C170.687 177.704 170.296 177.313 169.802 177.118Z" fill="white"/>
</g>
<defs>
<filter id="filter0_i_503_16559" x="173.245" y="81.7068" width="24.3395" height="15.196" filterUnits="userSpaceOnUse" color-interpolation-filters="sRGB">
<feFlood flood-opacity="0" result="BackgroundImageFix"/>
<feBlend mode="normal" in="SourceGraphic" in2="BackgroundImageFix" result="shape"/>
<feColorMatrix in="SourceAlpha" type="matrix" values="0 0 0 0 0 0 0 0 0 0 0 0 0 0 0 0 0 0 127 0" result="hardAlpha"/>
<feOffset dy="3"/>
<feGaussianBlur stdDeviation="1.5"/>
<feComposite in2="hardAlpha" operator="arithmetic" k2="-1" k3="1"/>
<feColorMatrix type="matrix" values="0 0 0 0 0.976471 0 0 0 0 0.713726 0 0 0 0 0.0352941 0 0 0 1 0"/>
<feBlend mode="normal" in2="shape" result="effect1_innerShadow_503_16559"/>
</filter>
<filter id="filter1_i_503_16559" x="169.622" y="103.659" width="24.3395" height="15.1963" filterUnits="userSpaceOnUse" color-interpolation-filters="sRGB">
<feFlood flood-opacity="0" result="BackgroundImageFix"/>
<feBlend mode="normal" in="SourceGraphic" in2="BackgroundImageFix" result="shape"/>
<feColorMatrix in="SourceAlpha" type="matrix" values="0 0 0 0 0 0 0 0 0 0 0 0 0 0 0 0 0 0 127 0" result="hardAlpha"/>
<feOffset dy="3"/>
<feGaussianBlur stdDeviation="1.5"/>
<feComposite in2="hardAlpha" operator="arithmetic" k2="-1" k3="1"/>
<feColorMatrix type="matrix" values="0 0 0 0 0.976471 0 0 0 0 0.713726 0 0 0 0 0.0352941 0 0 0 1 0"/>
<feBlend mode="normal" in2="shape" result="effect1_innerShadow_503_16559"/>
</filter>
<filter id="filter2_i_503_16559" x="18.4154" y="81.7068" width="24.3395" height="15.196" filterUnits="userSpaceOnUse" color-interpolation-filters="sRGB">
<feFlood flood-opacity="0" result="BackgroundImageFix"/>
<feBlend mode="normal" in="SourceGraphic" in2="BackgroundImageFix" result="shape"/>
<feColorMatrix in="SourceAlpha" type="matrix" values="0 0 0 0 0 0 0 0 0 0 0 0 0 0 0 0 0 0 127 0" result="hardAlpha"/>
<feOffset dy="3"/>
<feGaussianBlur stdDeviation="1.5"/>
<feComposite in2="hardAlpha" operator="arithmetic" k2="-1" k3="1"/>
<feColorMatrix type="matrix" values="0 0 0 0 0.976471 0 0 0 0 0.713726 0 0 0 0 0.0352941 0 0 0 1 0"/>
<feBlend mode="normal" in2="shape" result="effect1_innerShadow_503_16559"/>
</filter>
<filter id="filter3_i_503_16559" x="22.0381" y="103.659" width="24.3395" height="15.1963" filterUnits="userSpaceOnUse" color-interpolation-filters="sRGB">
<feFlood flood-opacity="0" result="BackgroundImageFix"/>
<feBlend mode="normal" in="SourceGraphic" in2="BackgroundImageFix" result="shape"/>
<feColorMatrix in="SourceAlpha" type="matrix" values="0 0 0 0 0 0 0 0 0 0 0 0 0 0 0 0 0 0 127 0" result="hardAlpha"/>
<feOffset dy="3"/>
<feGaussianBlur stdDeviation="1.5"/>
<feComposite in2="hardAlpha" operator="arithmetic" k2="-1" k3="1"/>
<feColorMatrix type="matrix" values="0 0 0 0 0.976471 0 0 0 0 0.713726 0 0 0 0 0.0352941 0 0 0 1 0"/>
<feBlend mode="normal" in2="shape" result="effect1_innerShadow_503_16559"/>
</filter>
<filter id="filter4_d_503_16559" x="138" y="150.075" width="30.75" height="34.0498" filterUnits="userSpaceOnUse" color-interpolation-filters="sRGB">
<feFlood flood-opacity="0" result="BackgroundImageFix"/>
<feColorMatrix in="SourceAlpha" type="matrix" values="0 0 0 0 0 0 0 0 0 0 0 0 0 0 0 0 0 0 127 0" result="hardAlpha"/>
<feOffset dy="3"/>
<feGaussianBlur stdDeviation="1.5"/>
<feColorMatrix type="matrix" values="0 0 0 0 0.996078 0 0 0 0 0.733333 0 0 0 0 0.105882 0 0 0 1 0"/>
<feBlend mode="normal" in2="BackgroundImageFix" result="effect1_dropShadow_503_16559"/>
<feBlend mode="normal" in="SourceGraphic" in2="effect1_dropShadow_503_16559" result="shape"/>
</filter>
<filter id="filter5_i_503_16559" x="139.35" y="148.425" width="28.05" height="34.3501" filterUnits="userSpaceOnUse" color-interpolation-filters="sRGB">
<feFlood flood-opacity="0" result="BackgroundImageFix"/>
<feBlend mode="normal" in="SourceGraphic" in2="BackgroundImageFix" result="shape"/>
<feColorMatrix in="SourceAlpha" type="matrix" values="0 0 0 0 0 0 0 0 0 0 0 0 0 0 0 0 0 0 127 0" result="hardAlpha"/>
<feOffset dy="3"/>
<feGaussianBlur stdDeviation="1.5"/>
<feComposite in2="hardAlpha" operator="arithmetic" k2="-1" k3="1"/>
<feColorMatrix type="matrix" values="0 0 0 0 0.927748 0 0 0 0 0.568655 0 0 0 0 0 0 0 0 1 0"/>
<feBlend mode="normal" in2="shape" result="effect1_innerShadow_503_16559"/>
</filter>
<filter id="filter6_d_503_16559" x="128.1" y="147.899" width="14.25" height="14.25" filterUnits="userSpaceOnUse" color-interpolation-filters="sRGB">
<feFlood flood-opacity="0" result="BackgroundImageFix"/>
<feColorMatrix in="SourceAlpha" type="matrix" values="0 0 0 0 0 0 0 0 0 0 0 0 0 0 0 0 0 0 127 0" result="hardAlpha"/>
<feOffset/>
<feGaussianBlur stdDeviation="1.5"/>
<feColorMatrix type="matrix" values="0 0 0 0 1 0 0 0 0 0.94902 0 0 0 0 0.305882 0 0 0 1 0"/>
<feBlend mode="normal" in2="BackgroundImageFix" result="effect1_dropShadow_503_16559"/>
<feBlend mode="normal" in="SourceGraphic" in2="effect1_dropShadow_503_16559" result="shape"/>
</filter>
<filter id="filter7_d_503_16559" x="167.7" y="142.95" width="15.9" height="15.8999" filterUnits="userSpaceOnUse" color-interpolation-filters="sRGB">
<feFlood flood-opacity="0" result="BackgroundImageFix"/>
<feColorMatrix in="SourceAlpha" type="matrix" values="0 0 0 0 0 0 0 0 0 0 0 0 0 0 0 0 0 0 127 0" result="hardAlpha"/>
<feOffset/>
<feGaussianBlur stdDeviation="1.5"/>
<feColorMatrix type="matrix" values="0 0 0 0 1 0 0 0 0 0.94902 0 0 0 0 0.305882 0 0 0 1 0"/>
<feBlend mode="normal" in2="BackgroundImageFix" result="effect1_dropShadow_503_16559"/>
<feBlend mode="normal" in="SourceGraphic" in2="effect1_dropShadow_503_16559" result="shape"/>
</filter>
<filter id="filter8_d_503_16559" x="126.45" y="171" width="15.9" height="15.8999" filterUnits="userSpaceOnUse" color-interpolation-filters="sRGB">
<feFlood flood-opacity="0" result="BackgroundImageFix"/>
<feColorMatrix in="SourceAlpha" type="matrix" values="0 0 0 0 0 0 0 0 0 0 0 0 0 0 0 0 0 0 127 0" result="hardAlpha"/>
<feOffset/>
<feGaussianBlur stdDeviation="1.5"/>
<feColorMatrix type="matrix" values="0 0 0 0 1 0 0 0 0 0.94902 0 0 0 0 0.305882 0 0 0 1 0"/>
<feBlend mode="normal" in2="BackgroundImageFix" result="effect1_dropShadow_503_16559"/>
<feBlend mode="normal" in="SourceGraphic" in2="effect1_dropShadow_503_16559" result="shape"/>
</filter>
<filter id="filter9_d_503_16559" x="166.05" y="171" width="10.95" height="10.9502" filterUnits="userSpaceOnUse" color-interpolation-filters="sRGB">
<feFlood flood-opacity="0" result="BackgroundImageFix"/>
<feColorMatrix in="SourceAlpha" type="matrix" values="0 0 0 0 0 0 0 0 0 0 0 0 0 0 0 0 0 0 127 0" result="hardAlpha"/>
<feOffset/>
<feGaussianBlur stdDeviation="1.5"/>
<feColorMatrix type="matrix" values="0 0 0 0 1 0 0 0 0 0.94902 0 0 0 0 0.305882 0 0 0 1 0"/>
<feBlend mode="normal" in2="BackgroundImageFix" result="effect1_dropShadow_503_16559"/>
<feBlend mode="normal" in="SourceGraphic" in2="effect1_dropShadow_503_16559" result="shape"/>
</filter>
<linearGradient id="paint0_linear_503_16559" x1="192.15" y1="61.585" x2="192.15" y2="131.1" gradientUnits="userSpaceOnUse">
<stop stop-color="#F7C71A"/>
<stop offset="1" stop-color="#FBAA00"/>
</linearGradient>
<linearGradient id="paint1_linear_503_16559" x1="192.15" y1="61.585" x2="192.15" y2="131.1" gradientUnits="userSpaceOnUse">
<stop stop-color="#FFDF6B"/>
<stop offset="1" stop-color="#F8A60A"/>
</linearGradient>
<linearGradient id="paint2_linear_503_16559" x1="23.85" y1="61.585" x2="23.85" y2="131.1" gradientUnits="userSpaceOnUse">
<stop stop-color="#F7C71A"/>
<stop offset="1" stop-color="#FBAA00"/>
</linearGradient>
<linearGradient id="paint3_linear_503_16559" x1="23.85" y1="61.585" x2="23.85" y2="131.1" gradientUnits="userSpaceOnUse">
<stop stop-color="#FFDF6B"/>
<stop offset="1" stop-color="#F8A60A"/>
</linearGradient>
<linearGradient id="paint4_linear_503_16559" x1="56.4555" y1="31.7439" x2="56.4555" y2="92.6477" gradientUnits="userSpaceOnUse">
<stop stop-color="#F7C71A"/>
<stop offset="1" stop-color="#FBAA00"/>
</linearGradient>
<linearGradient id="paint5_linear_503_16559" x1="56.4555" y1="31.7439" x2="56.4555" y2="92.6477" gradientUnits="userSpaceOnUse">
<stop stop-color="#FFDF6B"/>
<stop offset="1" stop-color="#F8A60A"/>
</linearGradient>
<linearGradient id="paint6_linear_503_16559" x1="30.4501" y1="30.4497" x2="30.4501" y2="189.989" gradientUnits="userSpaceOnUse">
<stop stop-color="#FFD541"/>
<stop offset="1" stop-color="#FFF550"/>
</linearGradient>
<linearGradient id="paint7_linear_503_16559" x1="124.942" y1="183.471" x2="124.588" y2="151.604" gradientUnits="userSpaceOnUse">
<stop stop-color="#F8C417"/>
<stop offset="1" stop-color="#FFD937"/>
</linearGradient>
<linearGradient id="paint8_linear_503_16559" x1="141" y1="150.075" x2="141" y2="178.125" gradientUnits="userSpaceOnUse">
<stop stop-color="#FCA50E"/>
<stop offset="1" stop-color="#FFC823"/>
</linearGradient>
<linearGradient id="paint9_linear_503_16559" x1="142.375" y1="151.478" x2="142.375" y2="164.1" gradientUnits="userSpaceOnUse">
<stop stop-color="#27DEEB"/>
<stop offset="1" stop-color="#08C9FF"/>
</linearGradient>
<linearGradient id="paint10_linear_503_16559" x1="149.447" y1="151.478" x2="149.447" y2="164.1" gradientUnits="userSpaceOnUse">
<stop stop-color="#8AFFFF"/>
<stop offset="1" stop-color="#0DF3FF"/>
</linearGradient>
<linearGradient id="paint11_linear_503_16559" x1="153.375" y1="151.478" x2="153.375" y2="164.1" gradientUnits="userSpaceOnUse">
<stop stop-color="#27DEEB"/>
<stop offset="1" stop-color="#08C9FF"/>
</linearGradient>
<linearGradient id="paint12_linear_503_16559" x1="142.375" y1="164.1" x2="142.375" y2="176.723" gradientUnits="userSpaceOnUse">
<stop stop-color="#009BF6"/>
<stop offset="1" stop-color="#00B5FF"/>
</linearGradient>
<linearGradient id="paint13_linear_503_16559" x1="149.447" y1="164.1" x2="149.447" y2="176.723" gradientUnits="userSpaceOnUse">
<stop stop-color="#00BAF3"/>
<stop offset="1" stop-color="#11B0E2"/>
</linearGradient>
<linearGradient id="paint14_linear_503_16559" x1="153.375" y1="164.1" x2="153.375" y2="176.723" gradientUnits="userSpaceOnUse">
<stop stop-color="#009BF6"/>
<stop offset="1" stop-color="#00B5FF"/>
</linearGradient>
</defs>
</svg>
