<svg width="216" height="216" viewBox="0 0 216 216" fill="none" xmlns="http://www.w3.org/2000/svg">
<path fill-rule="evenodd" clip-rule="evenodd" d="M108 185.55C118.01 185.55 127.577 183.653 136.361 180.2L152.55 189.547C153.571 190.137 154.829 190.137 155.85 189.547L175.413 178.252C176.434 177.663 177.063 176.573 177.063 175.394V152.805C177.063 151.626 176.434 150.537 175.413 149.947L173.821 149.028C181.254 137.127 185.55 123.065 185.55 108C185.55 65.17 150.83 30.4497 108 30.4497C65.1704 30.4497 30.4501 65.17 30.4501 108C30.4501 150.829 65.1704 185.55 108 185.55ZM131.337 169.755C124.082 172.498 116.216 173.999 108 173.999C71.5492 173.999 42 144.45 42 107.999C42 71.5485 71.5492 41.9993 108 41.9993C144.451 41.9993 174 71.5485 174 107.999C174 120.961 170.264 133.05 163.809 143.248L155.85 138.652C154.829 138.063 153.571 138.063 152.55 138.652L132.987 149.947C131.966 150.537 131.337 151.626 131.337 152.805V169.755Z" fill="url(#paint0_linear_503_16557)"/>
<mask id="mask0_503_16557" style="mask-type:luminance" maskUnits="userSpaceOnUse" x="30" y="30" width="156" height="160">
<path fill-rule="evenodd" clip-rule="evenodd" d="M108 185.55C118.01 185.55 127.577 183.653 136.361 180.2L152.55 189.547C153.571 190.137 154.829 190.137 155.85 189.547L175.413 178.252C176.434 177.663 177.063 176.573 177.063 175.394V152.805C177.063 151.626 176.434 150.537 175.413 149.947L173.821 149.028C181.254 137.127 185.55 123.065 185.55 108C185.55 65.17 150.83 30.4497 108 30.4497C65.1704 30.4497 30.4501 65.17 30.4501 108C30.4501 150.829 65.1704 185.55 108 185.55ZM131.337 169.755C124.082 172.498 116.216 173.999 108 173.999C71.5492 173.999 42 144.45 42 107.999C42 71.5485 71.5492 41.9993 108 41.9993C144.451 41.9993 174 71.5485 174 107.999C174 120.961 170.264 133.05 163.809 143.248L155.85 138.652C154.829 138.063 153.571 138.063 152.55 138.652L132.987 149.947C131.966 150.537 131.337 151.626 131.337 152.805V169.755Z" fill="white"/>
</mask>
<g mask="url(#mask0_503_16557)">
<g style="mix-blend-mode:multiply" opacity="0.3">
<path fill-rule="evenodd" clip-rule="evenodd" d="M132 18L108 108L108 108L154.669 27.3897L188.61 61.3308L108.002 108L198 84V132L108.001 108L108 108L108 108L108 108L108 108L108 108L18 132V84L107.999 108L27.39 61.3313L61.3312 27.3902L108 108L84 18H132ZM108 108L84 198H132L108 108ZM108 108L61.3311 188.61L27.39 154.669L108 108Z" fill="#FFD640"/>
</g>
</g>
<path opacity="0.2" d="M43.8116 129.422C52.7724 156.285 78.1246 175.65 108 175.65C112.015 175.65 115.949 175.301 119.772 174.63" stroke="#EDAA2F" stroke-width="3.3" stroke-linecap="round" stroke-linejoin="round"/>
<path opacity="0.6" d="M73.285 166.076C83.4339 172.156 95.3088 175.65 108 175.65" stroke="white" stroke-width="3.3" stroke-linecap="round" stroke-linejoin="round"/>
<path d="M47.8883 153.826C61.8208 172.116 83.6925 183.9 108.285 183.9C112.519 183.9 116.672 183.551 120.718 182.879" stroke="url(#paint1_linear_503_16557)" stroke-width="3.3" stroke-linecap="round" stroke-linejoin="round"/>
<path opacity="0.4" d="M183.9 108C183.9 66.0814 149.918 32.0999 108 32.0999C66.0814 32.0999 32.0999 66.0814 32.0999 108" stroke="white" stroke-width="3.3" stroke-linecap="round" stroke-linejoin="round"/>
<path opacity="0.2" d="M45.9679 80.9654C56.4012 57.059 80.2493 40.3499 108 40.3499C135.751 40.3499 159.599 57.059 170.032 80.9654" stroke="#DA731B" stroke-width="3.3" stroke-linecap="round" stroke-linejoin="round"/>
<path opacity="0.2" d="M73.285 49.9241C83.4339 43.8446 95.3088 40.3499 108 40.3499C120.691 40.3499 132.566 43.8446 142.715 49.9241" stroke="#DA731B" stroke-width="3.3" stroke-linecap="round" stroke-linejoin="round"/>
<path opacity="0.4" d="M161.335 143.906C159.373 142.773 155.448 140.507 155.448 140.507C154.682 140.065 153.739 140.065 152.973 140.507C150.672 141.835 149.042 142.776 148.082 143.331C146.085 144.484 144.455 145.425 143.191 146.154C141.018 147.409 137.757 149.292 133.41 151.802" stroke="white" stroke-width="3.3" stroke-linecap="round"/>
<path opacity="0.4" d="M175.65 165.09V175.514C175.65 176.108 175.331 176.656 174.814 176.949L155.448 187.935C154.682 188.377 153.739 188.377 152.973 187.935C150.672 186.606 149.042 185.665 148.082 185.111C146.085 183.958 144.455 183.016 143.191 182.287" stroke="#FDB115" stroke-width="3.3" stroke-linecap="round" stroke-linejoin="round"/>
<path d="M152.973 140.506C150.672 141.835 149.042 142.776 148.082 143.33" stroke="white" stroke-width="3.3" stroke-linecap="round"/>
<g filter="url(#filter0_d_503_16557)">
<path fill-rule="evenodd" clip-rule="evenodd" d="M132.352 156.097L131.638 155.815C131.202 155.643 130.987 155.149 131.159 154.713C131.246 154.493 131.419 154.32 131.638 154.234L132.352 153.952C133.176 153.627 133.828 152.975 134.152 152.152L134.434 151.438C134.606 151.001 135.1 150.787 135.537 150.959C135.756 151.045 135.929 151.219 136.016 151.438L136.297 152.152C136.622 152.975 137.274 153.627 138.097 153.952L138.811 154.234C139.248 154.406 139.463 154.9 139.29 155.336C139.204 155.555 139.031 155.729 138.811 155.815L138.097 156.097C137.274 156.422 136.622 157.073 136.297 157.897L136.016 158.611C135.843 159.048 135.35 159.262 134.913 159.09C134.694 159.004 134.52 158.83 134.434 158.611L134.152 157.897C133.828 157.073 133.176 156.422 132.352 156.097Z" fill="white"/>
</g>
<g filter="url(#filter1_d_503_16557)">
<path fill-rule="evenodd" clip-rule="evenodd" d="M172.203 152.187L171.346 151.849C170.822 151.642 170.565 151.05 170.771 150.525C170.875 150.263 171.083 150.054 171.346 149.951L172.203 149.613C173.191 149.223 173.973 148.441 174.363 147.453L174.701 146.596C174.908 146.072 175.5 145.814 176.024 146.021C176.287 146.125 176.495 146.333 176.599 146.596L176.937 147.453C177.327 148.441 178.109 149.223 179.097 149.613L179.954 149.951C180.478 150.157 180.735 150.75 180.529 151.274C180.425 151.537 180.217 151.745 179.954 151.849L179.097 152.187C178.109 152.576 177.327 153.359 176.937 154.347L176.599 155.204C176.392 155.728 175.8 155.985 175.276 155.778C175.013 155.675 174.805 155.467 174.701 155.204L174.363 154.347C173.973 153.359 173.191 152.576 172.203 152.187Z" fill="white"/>
</g>
<path fill-rule="evenodd" clip-rule="evenodd" d="M154.2 173.01L147.74 175.307C146.647 175.696 145.506 174.866 145.537 173.707L145.726 166.853L141.545 161.419C140.838 160.5 141.274 159.158 142.386 158.83L148.963 156.892L152.839 151.236C153.494 150.28 154.906 150.28 155.561 151.236L159.437 156.892L166.014 158.83C167.126 159.158 167.562 160.5 166.855 161.419L162.674 166.853L162.862 173.707C162.894 174.866 161.752 175.696 160.66 175.307L154.2 173.01Z" fill="url(#paint2_linear_503_16557)" stroke="white" stroke-width="3.3" stroke-linecap="round" stroke-linejoin="round"/>
<g filter="url(#filter2_d_503_16557)">
<path fill-rule="evenodd" clip-rule="evenodd" d="M130.953 180.237L130.096 179.899C129.572 179.692 129.315 179.1 129.521 178.576C129.625 178.313 129.833 178.105 130.096 178.001L130.953 177.663C131.941 177.273 132.723 176.491 133.113 175.503L133.451 174.646C133.658 174.122 134.25 173.865 134.774 174.071C135.037 174.175 135.245 174.383 135.349 174.646L135.687 175.503C136.077 176.491 136.859 177.273 137.847 177.663L138.704 178.001C139.228 178.208 139.485 178.8 139.279 179.324C139.175 179.587 138.967 179.795 138.704 179.899L137.847 180.237C136.859 180.627 136.077 181.409 135.687 182.397L135.349 183.254C135.142 183.778 134.55 184.035 134.026 183.829C133.763 183.725 133.555 183.517 133.451 183.254L133.113 182.397C132.723 181.409 131.941 180.627 130.953 180.237Z" fill="white"/>
</g>
<g filter="url(#filter3_d_503_16557)">
<path fill-rule="evenodd" clip-rule="evenodd" d="M169.801 177.118L169.373 176.949C169.111 176.846 168.982 176.55 169.086 176.288C169.137 176.156 169.242 176.052 169.373 176.001L169.801 175.832C170.296 175.637 170.687 175.246 170.881 174.751L171.05 174.323C171.154 174.061 171.45 173.932 171.712 174.036C171.844 174.088 171.948 174.192 171.999 174.323L172.168 174.751C172.363 175.246 172.754 175.637 173.248 175.832L173.677 176.001C173.939 176.104 174.068 176.4 173.964 176.662C173.912 176.794 173.808 176.898 173.677 176.949L173.248 177.118C172.754 177.313 172.363 177.704 172.168 178.199L171.999 178.627C171.896 178.889 171.6 179.018 171.338 178.914C171.206 178.862 171.102 178.758 171.05 178.627L170.881 178.199C170.687 177.704 170.296 177.313 169.801 177.118Z" fill="white"/>
</g>
<defs>
<filter id="filter0_d_503_16557" x="128.1" y="147.899" width="14.25" height="14.25" filterUnits="userSpaceOnUse" color-interpolation-filters="sRGB">
<feFlood flood-opacity="0" result="BackgroundImageFix"/>
<feColorMatrix in="SourceAlpha" type="matrix" values="0 0 0 0 0 0 0 0 0 0 0 0 0 0 0 0 0 0 127 0" result="hardAlpha"/>
<feOffset/>
<feGaussianBlur stdDeviation="1.5"/>
<feColorMatrix type="matrix" values="0 0 0 0 1 0 0 0 0 0.94902 0 0 0 0 0.305882 0 0 0 1 0"/>
<feBlend mode="normal" in2="BackgroundImageFix" result="effect1_dropShadow_503_16557"/>
<feBlend mode="normal" in="SourceGraphic" in2="effect1_dropShadow_503_16557" result="shape"/>
</filter>
<filter id="filter1_d_503_16557" x="167.7" y="142.95" width="15.9" height="15.8999" filterUnits="userSpaceOnUse" color-interpolation-filters="sRGB">
<feFlood flood-opacity="0" result="BackgroundImageFix"/>
<feColorMatrix in="SourceAlpha" type="matrix" values="0 0 0 0 0 0 0 0 0 0 0 0 0 0 0 0 0 0 127 0" result="hardAlpha"/>
<feOffset/>
<feGaussianBlur stdDeviation="1.5"/>
<feColorMatrix type="matrix" values="0 0 0 0 1 0 0 0 0 0.94902 0 0 0 0 0.305882 0 0 0 1 0"/>
<feBlend mode="normal" in2="BackgroundImageFix" result="effect1_dropShadow_503_16557"/>
<feBlend mode="normal" in="SourceGraphic" in2="effect1_dropShadow_503_16557" result="shape"/>
</filter>
<filter id="filter2_d_503_16557" x="126.45" y="171" width="15.9" height="15.8999" filterUnits="userSpaceOnUse" color-interpolation-filters="sRGB">
<feFlood flood-opacity="0" result="BackgroundImageFix"/>
<feColorMatrix in="SourceAlpha" type="matrix" values="0 0 0 0 0 0 0 0 0 0 0 0 0 0 0 0 0 0 127 0" result="hardAlpha"/>
<feOffset/>
<feGaussianBlur stdDeviation="1.5"/>
<feColorMatrix type="matrix" values="0 0 0 0 1 0 0 0 0 0.94902 0 0 0 0 0.305882 0 0 0 1 0"/>
<feBlend mode="normal" in2="BackgroundImageFix" result="effect1_dropShadow_503_16557"/>
<feBlend mode="normal" in="SourceGraphic" in2="effect1_dropShadow_503_16557" result="shape"/>
</filter>
<filter id="filter3_d_503_16557" x="166.05" y="171" width="10.95" height="10.9502" filterUnits="userSpaceOnUse" color-interpolation-filters="sRGB">
<feFlood flood-opacity="0" result="BackgroundImageFix"/>
<feColorMatrix in="SourceAlpha" type="matrix" values="0 0 0 0 0 0 0 0 0 0 0 0 0 0 0 0 0 0 127 0" result="hardAlpha"/>
<feOffset/>
<feGaussianBlur stdDeviation="1.5"/>
<feColorMatrix type="matrix" values="0 0 0 0 1 0 0 0 0 0.94902 0 0 0 0 0.305882 0 0 0 1 0"/>
<feBlend mode="normal" in2="BackgroundImageFix" result="effect1_dropShadow_503_16557"/>
<feBlend mode="normal" in="SourceGraphic" in2="effect1_dropShadow_503_16557" result="shape"/>
</filter>
<linearGradient id="paint0_linear_503_16557" x1="30.4501" y1="30.4497" x2="30.4501" y2="189.989" gradientUnits="userSpaceOnUse">
<stop stop-color="#F9B800"/>
<stop offset="1" stop-color="#FDE046"/>
</linearGradient>
<linearGradient id="paint1_linear_503_16557" x1="124.942" y1="183.471" x2="124.588" y2="151.604" gradientUnits="userSpaceOnUse">
<stop stop-color="#F8C417"/>
<stop offset="1" stop-color="#FFD937"/>
</linearGradient>
<linearGradient id="paint2_linear_503_16557" x1="139.35" y1="149.25" x2="139.35" y2="178.95" gradientUnits="userSpaceOnUse">
<stop stop-color="#FCA50E"/>
<stop offset="1" stop-color="#FFC823"/>
</linearGradient>
</defs>
</svg>
