<svg width="216" height="216" viewBox="0 0 216 216" fill="none" xmlns="http://www.w3.org/2000/svg">
<path fill-rule="evenodd" clip-rule="evenodd" d="M135.912 180.375C127.251 183.717 117.84 185.55 108 185.55C65.1708 185.55 30.4504 150.829 30.4504 108C30.4504 65.17 65.1708 30.4497 108 30.4497C150.83 30.4497 185.55 65.17 185.55 108C185.55 124.611 180.328 140.003 171.435 152.622L178.135 157.49C179.794 158.695 180.489 160.833 179.855 162.783L172.091 186.679C171.457 188.629 169.639 189.95 167.588 189.95H142.463C140.412 189.95 138.594 188.629 137.96 186.679L135.912 180.375ZM132.336 169.369C124.805 172.357 116.595 174 108 174C71.5496 174 42.0004 144.451 42.0004 108C42.0004 71.5492 71.5496 42 108 42C144.451 42 174 71.5492 174 108C174 122.074 169.595 135.119 162.089 145.831L157.808 142.722C156.149 141.516 153.902 141.516 152.242 142.722L131.916 157.49C130.256 158.695 129.562 160.833 130.196 162.783L132.336 169.369Z" fill="url(#paint0_linear_503_16556)"/>
<mask id="mask0_503_16556" style="mask-type:alpha" maskUnits="userSpaceOnUse" x="30" y="30" width="156" height="160">
<path fill-rule="evenodd" clip-rule="evenodd" d="M135.912 180.375C127.251 183.717 117.84 185.55 108 185.55C65.1708 185.55 30.4504 150.829 30.4504 108C30.4504 65.17 65.1708 30.4497 108 30.4497C150.83 30.4497 185.55 65.17 185.55 108C185.55 124.611 180.328 140.003 171.435 152.622L178.135 157.49C179.794 158.695 180.489 160.833 179.855 162.783L172.091 186.679C171.457 188.629 169.639 189.95 167.588 189.95H142.463C140.412 189.95 138.594 188.629 137.96 186.679L135.912 180.375ZM132.336 169.369C124.805 172.357 116.595 174 108 174C71.5496 174 42.0004 144.451 42.0004 108C42.0004 71.5492 71.5496 42 108 42C144.451 42 174 71.5492 174 108C174 122.074 169.595 135.119 162.089 145.831L157.808 142.722C156.149 141.516 153.902 141.516 152.242 142.722L131.916 157.49C130.256 158.695 129.562 160.833 130.196 162.783L132.336 169.369Z" fill="url(#paint1_linear_503_16556)"/>
</mask>
<g mask="url(#mask0_503_16556)">
<path opacity="0.2" fill-rule="evenodd" clip-rule="evenodd" d="M132 21L108.001 111L108.001 111L154.67 30.3897L188.611 64.3308L108.002 111L198 87V135L108.001 111L108.001 111L108.001 111L108.001 111L108.001 111L108 111L18.0004 135V87L108 111L27.3904 64.3313L61.3315 30.3902L108 111L84.0004 21H132ZM108.001 111L84.0004 201H132L108.001 111ZM108.001 111L61.3315 191.61L27.3903 157.669L108.001 111Z" fill="url(#paint2_linear_503_16556)"/>
</g>
<path d="M161.502 147.179C160.055 146.11 157.161 143.972 157.161 143.972C155.763 142.91 153.871 142.91 152.473 143.972L132.75 158.85" stroke="#D9E4E6" stroke-width="3.3" stroke-linecap="round"/>
<path opacity="0.4" d="M157.161 143.972C155.763 142.91 153.871 142.91 152.473 143.972L132.75 158.85" stroke="white" stroke-width="3.3" stroke-linecap="round"/>
<path d="M152.473 143.971L147.582 147.688" stroke="white" stroke-width="3.3" stroke-linecap="round"/>
<path d="M145.95 188.22H164.925" stroke="#94B4BD" stroke-opacity="0.496012" stroke-width="3.3" stroke-linecap="round" stroke-linejoin="round"/>
<path opacity="0.2" d="M45.7632 134.56C56.0866 158.719 80.0663 175.65 108 175.65C112.016 175.65 115.949 175.3 119.772 174.629" stroke="#9EC2C7" stroke-width="3.3" stroke-linecap="round" stroke-linejoin="round"/>
<path opacity="0.2" d="M170.239 134.555C172.965 128.174 174.738 121.29 175.381 114.08" stroke="#9EC2C7" stroke-width="3.3" stroke-linecap="round" stroke-linejoin="round"/>
<path opacity="0.6" d="M73.2854 166.076C83.4343 172.155 95.3092 175.65 108 175.65" stroke="white" stroke-width="3.3" stroke-linecap="round" stroke-linejoin="round"/>
<path d="M47.8887 153.826C61.8212 172.116 83.6928 183.9 108.286 183.9C112.519 183.9 116.672 183.551 120.718 182.879" stroke="#94B4BD" stroke-opacity="0.496012" stroke-width="3.3" stroke-linecap="round" stroke-linejoin="round"/>
<path opacity="0.4" d="M183.9 108C183.9 66.0814 149.919 32.0999 108 32.0999C66.0818 32.0999 32.1002 66.0814 32.1002 108" stroke="white" stroke-width="3.3" stroke-linecap="round" stroke-linejoin="round"/>
<path opacity="0.2" d="M45.5798 81.8734C55.8005 57.4832 79.8996 40.3499 108 40.3499C136.101 40.3499 160.2 57.4832 170.421 81.8734" stroke="#B3D0D2" stroke-width="3.3" stroke-linecap="round" stroke-linejoin="round"/>
<path opacity="0.2" d="M73.2854 49.9241C83.4343 43.8446 95.3092 40.3499 108 40.3499C120.691 40.3499 132.566 43.8446 142.715 49.9241" stroke="#B3D0D2" stroke-width="3.3" stroke-linecap="round" stroke-linejoin="round"/>
<g filter="url(#filter0_i_503_16556)">
<path fill-rule="evenodd" clip-rule="evenodd" d="M155.025 177.096L148.4 179.452C147.264 179.856 146.076 178.993 146.11 177.787L146.303 170.759L142.015 165.186C141.28 164.23 141.734 162.834 142.89 162.493L149.635 160.505L153.609 154.705C154.291 153.711 155.759 153.711 156.441 154.705L160.416 160.505L167.16 162.493C168.317 162.834 168.77 164.23 168.035 165.186L163.747 170.759L163.941 177.787C163.974 178.993 162.786 179.856 161.65 179.452L155.025 177.096Z" fill="url(#paint3_linear_503_16556)"/>
</g>
<path fill-rule="evenodd" clip-rule="evenodd" d="M155.025 177.096L148.4 179.452C147.264 179.856 146.076 178.993 146.11 177.787L146.303 170.759L142.015 165.186C141.28 164.23 141.734 162.834 142.89 162.493L149.635 160.505L153.609 154.705C154.291 153.711 155.759 153.711 156.441 154.705L160.416 160.505L167.16 162.493C168.317 162.834 168.77 164.23 168.035 165.186L163.747 170.759L163.941 177.787C163.974 178.993 162.786 179.856 161.65 179.452L155.025 177.096Z" stroke="white" stroke-width="3.3" stroke-linecap="round" stroke-linejoin="round"/>
<g filter="url(#filter1_d_503_16556)">
<path fill-rule="evenodd" clip-rule="evenodd" d="M173.603 160.747L172.889 160.465C172.452 160.293 172.237 159.799 172.41 159.363C172.496 159.144 172.67 158.97 172.889 158.884L173.603 158.602C174.426 158.277 175.078 157.626 175.403 156.802L175.684 156.088C175.857 155.651 176.35 155.437 176.787 155.609C177.006 155.695 177.18 155.869 177.266 156.088L177.548 156.802C177.872 157.626 178.524 158.277 179.348 158.602L180.062 158.884C180.499 159.056 180.713 159.55 180.541 159.986C180.454 160.206 180.281 160.379 180.062 160.465L179.348 160.747C178.524 161.072 177.872 161.724 177.548 162.547L177.266 163.261C177.094 163.698 176.6 163.912 176.163 163.74C175.944 163.654 175.771 163.48 175.684 163.261L175.403 162.547C175.078 161.724 174.426 161.072 173.603 160.747Z" fill="white"/>
</g>
<g filter="url(#filter2_d_503_16556)">
<path fill-rule="evenodd" clip-rule="evenodd" d="M135.152 166.918L134.724 166.749C134.462 166.646 134.333 166.349 134.436 166.087C134.488 165.956 134.592 165.852 134.724 165.8L135.152 165.631C135.646 165.436 136.037 165.045 136.232 164.551L136.401 164.123C136.504 163.861 136.801 163.732 137.063 163.835C137.194 163.887 137.298 163.991 137.35 164.123L137.519 164.551C137.714 165.045 138.105 165.436 138.599 165.631L139.027 165.8C139.29 165.903 139.418 166.2 139.315 166.462C139.263 166.593 139.159 166.697 139.027 166.749L138.599 166.918C138.105 167.113 137.714 167.504 137.519 167.998L137.35 168.427C137.247 168.689 136.95 168.817 136.688 168.714C136.557 168.662 136.453 168.558 136.401 168.427L136.232 167.998C136.037 167.504 135.646 167.113 135.152 166.918Z" fill="white"/>
</g>
<g filter="url(#filter3_d_503_16556)">
<path fill-rule="evenodd" clip-rule="evenodd" d="M150.002 186.718L149.573 186.549C149.311 186.446 149.183 186.15 149.286 185.888C149.338 185.756 149.442 185.652 149.573 185.6L150.002 185.431C150.496 185.237 150.887 184.845 151.082 184.351L151.251 183.923C151.354 183.661 151.65 183.532 151.912 183.636C152.044 183.687 152.148 183.791 152.2 183.923L152.369 184.351C152.564 184.845 152.955 185.237 153.449 185.431L153.877 185.6C154.139 185.704 154.268 186 154.165 186.262C154.113 186.393 154.009 186.497 153.877 186.549L153.449 186.718C152.955 186.913 152.564 187.304 152.369 187.798L152.2 188.227C152.096 188.489 151.8 188.617 151.538 188.514C151.407 188.462 151.303 188.358 151.251 188.227L151.082 187.798C150.887 187.304 150.496 186.913 150.002 186.718Z" fill="white"/>
</g>
<defs>
<filter id="filter0_i_503_16556" x="140.007" y="152.309" width="30.0357" height="31.8945" filterUnits="userSpaceOnUse" color-interpolation-filters="sRGB">
<feFlood flood-opacity="0" result="BackgroundImageFix"/>
<feBlend mode="normal" in="SourceGraphic" in2="BackgroundImageFix" result="shape"/>
<feColorMatrix in="SourceAlpha" type="matrix" values="0 0 0 0 0 0 0 0 0 0 0 0 0 0 0 0 0 0 127 0" result="hardAlpha"/>
<feOffset dy="3"/>
<feGaussianBlur stdDeviation="1.5"/>
<feComposite in2="hardAlpha" operator="arithmetic" k2="-1" k3="1"/>
<feColorMatrix type="matrix" values="0 0 0 0 0.508286 0 0 0 0 0.694443 0 0 0 0 0.72829 0 0 0 1 0"/>
<feBlend mode="normal" in2="shape" result="effect1_innerShadow_503_16556"/>
</filter>
<filter id="filter1_d_503_16556" x="169.35" y="152.55" width="14.25" height="14.25" filterUnits="userSpaceOnUse" color-interpolation-filters="sRGB">
<feFlood flood-opacity="0" result="BackgroundImageFix"/>
<feColorMatrix in="SourceAlpha" type="matrix" values="0 0 0 0 0 0 0 0 0 0 0 0 0 0 0 0 0 0 127 0" result="hardAlpha"/>
<feOffset/>
<feGaussianBlur stdDeviation="1.5"/>
<feColorMatrix type="matrix" values="0 0 0 0 0.705882 0 0 0 0 0.823529 0 0 0 0 0.831373 0 0 0 1 0"/>
<feBlend mode="normal" in2="BackgroundImageFix" result="effect1_dropShadow_503_16556"/>
<feBlend mode="normal" in="SourceGraphic" in2="effect1_dropShadow_503_16556" result="shape"/>
</filter>
<filter id="filter2_d_503_16556" x="131.401" y="160.8" width="10.95" height="10.95" filterUnits="userSpaceOnUse" color-interpolation-filters="sRGB">
<feFlood flood-opacity="0" result="BackgroundImageFix"/>
<feColorMatrix in="SourceAlpha" type="matrix" values="0 0 0 0 0 0 0 0 0 0 0 0 0 0 0 0 0 0 127 0" result="hardAlpha"/>
<feOffset/>
<feGaussianBlur stdDeviation="1.5"/>
<feColorMatrix type="matrix" values="0 0 0 0 0.705882 0 0 0 0 0.823529 0 0 0 0 0.831373 0 0 0 1 0"/>
<feBlend mode="normal" in2="BackgroundImageFix" result="effect1_dropShadow_503_16556"/>
<feBlend mode="normal" in="SourceGraphic" in2="effect1_dropShadow_503_16556" result="shape"/>
</filter>
<filter id="filter3_d_503_16556" x="146.25" y="180.6" width="10.95" height="10.95" filterUnits="userSpaceOnUse" color-interpolation-filters="sRGB">
<feFlood flood-opacity="0" result="BackgroundImageFix"/>
<feColorMatrix in="SourceAlpha" type="matrix" values="0 0 0 0 0 0 0 0 0 0 0 0 0 0 0 0 0 0 127 0" result="hardAlpha"/>
<feOffset/>
<feGaussianBlur stdDeviation="1.5"/>
<feColorMatrix type="matrix" values="0 0 0 0 0.705882 0 0 0 0 0.823529 0 0 0 0 0.831373 0 0 0 1 0"/>
<feBlend mode="normal" in2="BackgroundImageFix" result="effect1_dropShadow_503_16556"/>
<feBlend mode="normal" in="SourceGraphic" in2="effect1_dropShadow_503_16556" result="shape"/>
</filter>
<linearGradient id="paint0_linear_503_16556" x1="30.4504" y1="30.4497" x2="30.4504" y2="189.95" gradientUnits="userSpaceOnUse">
<stop stop-color="#F0F1F3"/>
<stop offset="1" stop-color="#C0DCDC"/>
</linearGradient>
<linearGradient id="paint1_linear_503_16556" x1="30.4504" y1="30.4497" x2="30.4504" y2="189.95" gradientUnits="userSpaceOnUse">
<stop stop-color="#FDDA9D"/>
<stop offset="1" stop-color="#EFB35E"/>
</linearGradient>
<linearGradient id="paint2_linear_503_16556" x1="26.3236" y1="21" x2="26.3236" y2="184.354" gradientUnits="userSpaceOnUse">
<stop stop-color="#AFD4D6"/>
<stop offset="1" stop-color="#B9D9DB"/>
</linearGradient>
<linearGradient id="paint3_linear_503_16556" x1="139.74" y1="152.64" x2="139.74" y2="183.21" gradientUnits="userSpaceOnUse">
<stop stop-color="#B7D6D8"/>
<stop offset="1" stop-color="#A7BCC1"/>
</linearGradient>
</defs>
</svg>
