<svg width="216" height="216" viewBox="0 0 216 216" fill="none" xmlns="http://www.w3.org/2000/svg">
<path fill-rule="evenodd" clip-rule="evenodd" d="M135.912 180.375C127.251 183.717 117.84 185.55 108 185.55C65.1706 185.55 30.4503 150.829 30.4503 108C30.4503 65.17 65.1706 30.4497 108 30.4497C150.83 30.4497 185.55 65.17 185.55 108C185.55 124.611 180.328 140.003 171.434 152.622L178.135 157.49C179.794 158.695 180.488 160.833 179.855 162.783L172.091 186.679C171.457 188.629 169.639 189.95 167.588 189.95H142.463C140.411 189.95 138.594 188.629 137.96 186.679L135.912 180.375ZM132.335 169.369C124.805 172.357 116.595 174 108 174C71.5494 174 42.0002 144.451 42.0002 108C42.0002 71.5492 71.5494 42 108 42C144.451 42 174 71.5492 174 108C174 122.074 169.595 135.119 162.088 145.831L157.808 142.722C156.149 141.516 153.902 141.516 152.242 142.722L131.916 157.49C130.256 158.695 129.562 160.833 130.196 162.783L132.335 169.369Z" fill="url(#paint0_linear_503_16555)"/>
<mask id="mask0_503_16555" style="mask-type:alpha" maskUnits="userSpaceOnUse" x="30" y="30" width="156" height="160">
<path fill-rule="evenodd" clip-rule="evenodd" d="M135.912 180.375C127.251 183.717 117.84 185.55 108 185.55C65.1706 185.55 30.4503 150.829 30.4503 108C30.4503 65.17 65.1706 30.4497 108 30.4497C150.83 30.4497 185.55 65.17 185.55 108C185.55 124.611 180.328 140.003 171.434 152.622L178.135 157.49C179.794 158.695 180.488 160.833 179.855 162.783L172.091 186.679C171.457 188.629 169.639 189.95 167.588 189.95H142.463C140.411 189.95 138.594 188.629 137.96 186.679L135.912 180.375ZM132.335 169.369C124.805 172.357 116.595 174 108 174C71.5494 174 42.0002 144.451 42.0002 108C42.0002 71.5492 71.5494 42 108 42C144.451 42 174 71.5492 174 108C174 122.074 169.595 135.119 162.088 145.831L157.808 142.722C156.149 141.516 153.902 141.516 152.242 142.722L131.916 157.49C130.256 158.695 129.562 160.833 130.196 162.783L132.335 169.369Z" fill="url(#paint1_linear_503_16555)"/>
</mask>
<g mask="url(#mask0_503_16555)">
<g style="mix-blend-mode:multiply" opacity="0.3">
<path fill-rule="evenodd" clip-rule="evenodd" d="M132 21L108 111L84.0002 21H132ZM108 111L188.611 64.3308L154.669 30.3897L108 111ZM108 111L198 135V87L108 111ZM108 111L84.0002 201H132L108 111ZM108 111L61.3313 191.61L27.3902 157.669L108 111ZM108 111L18.0002 87L18.0002 135L108 111ZM108 111L27.3902 64.3313L61.3313 30.3902L108 111Z" fill="#FFD640"/>
</g>
</g>
<path opacity="0.2" d="M49.7156 142.364C61.4873 162.287 83.1832 175.65 108 175.65C112.016 175.65 115.949 175.3 119.772 174.629" stroke="#F68A2D" stroke-width="3.3" stroke-linecap="round" stroke-linejoin="round"/>
<path opacity="0.3" d="M73.2853 166.076C83.4341 172.155 95.3091 175.65 108 175.65" stroke="white" stroke-width="3.3" stroke-linecap="round" stroke-linejoin="round"/>
<path opacity="0.2" d="M46.0308 80.822C56.4968 56.9923 80.3049 40.3499 108 40.3499C135.695 40.3499 159.503 56.9923 169.969 80.822" stroke="#DA731B" stroke-width="3.3" stroke-linecap="round" stroke-linejoin="round"/>
<path opacity="0.2" d="M73.2853 49.9241C83.4341 43.8446 95.3091 40.3499 108 40.3499C120.691 40.3499 132.566 43.8446 142.715 49.9241" stroke="#DA731B" stroke-width="3.3" stroke-linecap="round" stroke-linejoin="round"/>
<path opacity="0.4" d="M161.431 147.127C160.008 146.075 157.161 143.972 157.161 143.972C155.763 142.91 153.871 142.91 152.473 143.972L132.75 158.85" stroke="white" stroke-width="3.3" stroke-linecap="round" stroke-linejoin="round"/>
<path opacity="0.4" d="M157.161 143.972C155.763 142.91 153.871 142.91 152.473 143.972L132.75 158.85" stroke="white" stroke-width="3.3" stroke-linecap="round" stroke-linejoin="round"/>
<path d="M152.473 143.971L147.582 147.688" stroke="white" stroke-width="3.3" stroke-linecap="round"/>
<path opacity="0.5" d="M145.95 188.22H164.925" stroke="#DA731B" stroke-width="3.3" stroke-linecap="round" stroke-linejoin="round"/>
<path opacity="0.5" d="M47.8885 153.826C61.821 172.116 83.6927 183.9 108.285 183.9C112.519 183.9 116.672 183.551 120.718 182.879" stroke="#DA731B" stroke-width="3.3" stroke-linecap="round" stroke-linejoin="round"/>
<path opacity="0.4" d="M183.9 108C183.9 66.0814 149.919 32.0999 108 32.0999C66.0817 32.0999 32.1001 66.0814 32.1001 108" stroke="white" stroke-width="3.3" stroke-linecap="round" stroke-linejoin="round"/>
<g filter="url(#filter0_i_503_16555)">
<path fill-rule="evenodd" clip-rule="evenodd" d="M155.025 177.096L148.4 179.452C147.264 179.856 146.077 178.993 146.11 177.787L146.303 170.759L142.015 165.186C141.28 164.23 141.734 162.834 142.89 162.493L149.635 160.505L153.609 154.705C154.291 153.711 155.759 153.711 156.441 154.705L160.416 160.505L167.16 162.493C168.317 162.834 168.77 164.23 168.035 165.186L163.747 170.759L163.941 177.787C163.974 178.993 162.786 179.856 161.65 179.452L155.025 177.096Z" fill="url(#paint2_linear_503_16555)"/>
</g>
<path fill-rule="evenodd" clip-rule="evenodd" d="M155.025 177.096L148.4 179.452C147.264 179.856 146.077 178.993 146.11 177.787L146.303 170.759L142.015 165.186C141.28 164.23 141.734 162.834 142.89 162.493L149.635 160.505L153.609 154.705C154.291 153.711 155.759 153.711 156.441 154.705L160.416 160.505L167.16 162.493C168.317 162.834 168.77 164.23 168.035 165.186L163.747 170.759L163.941 177.787C163.974 178.993 162.786 179.856 161.65 179.452L155.025 177.096Z" stroke="#FFE9D1" stroke-width="3.3" stroke-linecap="round" stroke-linejoin="round"/>
<defs>
<filter id="filter0_i_503_16555" x="140.007" y="152.309" width="30.0357" height="31.8945" filterUnits="userSpaceOnUse" color-interpolation-filters="sRGB">
<feFlood flood-opacity="0" result="BackgroundImageFix"/>
<feBlend mode="normal" in="SourceGraphic" in2="BackgroundImageFix" result="shape"/>
<feColorMatrix in="SourceAlpha" type="matrix" values="0 0 0 0 0 0 0 0 0 0 0 0 0 0 0 0 0 0 127 0" result="hardAlpha"/>
<feOffset dy="3"/>
<feGaussianBlur stdDeviation="1.5"/>
<feComposite in2="hardAlpha" operator="arithmetic" k2="-1" k3="1"/>
<feColorMatrix type="matrix" values="0 0 0 0 0.921569 0 0 0 0 0.447059 0 0 0 0 0.105882 0 0 0 1 0"/>
<feBlend mode="normal" in2="shape" result="effect1_innerShadow_503_16555"/>
</filter>
<linearGradient id="paint0_linear_503_16555" x1="30.4503" y1="30.4497" x2="30.4503" y2="189.95" gradientUnits="userSpaceOnUse">
<stop stop-color="#FDDA9D"/>
<stop offset="1" stop-color="#EFB35E"/>
</linearGradient>
<linearGradient id="paint1_linear_503_16555" x1="30.4503" y1="30.4497" x2="30.4503" y2="189.95" gradientUnits="userSpaceOnUse">
<stop stop-color="#FDDA9D"/>
<stop offset="1" stop-color="#EFB35E"/>
</linearGradient>
<linearGradient id="paint2_linear_503_16555" x1="139.74" y1="152.64" x2="139.74" y2="183.21" gradientUnits="userSpaceOnUse">
<stop stop-color="#FD9B41"/>
<stop offset="1" stop-color="#F48224"/>
</linearGradient>
</defs>
</svg>
