<svg width="216" height="216" viewBox="0 0 216 216" fill="none" xmlns="http://www.w3.org/2000/svg">
<path fill-rule="evenodd" clip-rule="evenodd" d="M107.999 185.549C117.665 185.549 126.918 183.781 135.452 180.55C140.402 185.667 147.341 188.849 155.023 188.849C170.059 188.849 182.247 176.66 182.247 161.624C182.247 155.222 180.037 149.335 176.338 144.686C182.214 133.764 185.547 121.271 185.547 108C185.547 65.17 150.828 30.4497 107.999 30.4497C65.1696 30.4497 30.4498 65.17 30.4498 108C30.4498 150.829 65.1696 185.549 107.999 185.549ZM129.276 170.494C122.6 172.766 115.443 173.999 107.999 173.999C71.5485 173.999 41.9997 144.45 41.9997 107.999C41.9997 71.5484 71.5485 41.9993 107.999 41.9993C144.449 41.9993 173.998 71.5484 173.998 107.999C173.998 118.505 171.543 128.438 167.175 137.256C163.517 135.428 159.39 134.399 155.023 134.399C139.987 134.399 127.798 146.588 127.798 161.624C127.798 164.73 128.318 167.714 129.276 170.494Z" fill="url(#paint0_linear_503_16554)"/>
<mask id="mask0_503_16554" style="mask-type:luminance" maskUnits="userSpaceOnUse" x="30" y="30" width="156" height="159">
<path fill-rule="evenodd" clip-rule="evenodd" d="M107.999 185.549C117.665 185.549 126.918 183.781 135.452 180.55C140.402 185.667 147.341 188.849 155.023 188.849C170.059 188.849 182.247 176.66 182.247 161.624C182.247 155.222 180.037 149.335 176.338 144.686C182.214 133.764 185.547 121.271 185.547 108C185.547 65.17 150.828 30.4497 107.999 30.4497C65.1696 30.4497 30.4498 65.17 30.4498 108C30.4498 150.829 65.1696 185.549 107.999 185.549ZM129.276 170.494C122.6 172.766 115.443 173.999 107.999 173.999C71.5485 173.999 41.9997 144.45 41.9997 107.999C41.9997 71.5484 71.5485 41.9993 107.999 41.9993C144.449 41.9993 173.998 71.5484 173.998 107.999C173.998 118.505 171.543 128.438 167.175 137.256C163.517 135.428 159.39 134.399 155.023 134.399C139.987 134.399 127.798 146.588 127.798 161.624C127.798 164.73 128.318 167.714 129.276 170.494Z" fill="white"/>
</mask>
<g mask="url(#mask0_503_16554)">
<g style="mix-blend-mode:multiply" opacity="0.12">
<path d="M102.224 68.8955L131.311 39.5823" stroke="#78A2A9" stroke-width="4.95274" stroke-linecap="round"/>
</g>
<g style="mix-blend-mode:multiply" opacity="0.12">
<path d="M10.6501 116.285L39.7375 86.9722" stroke="#78A2A9" stroke-width="4.95274" stroke-linecap="round"/>
</g>
<g style="mix-blend-mode:multiply" opacity="0.12">
<path d="M119.548 61.4131L148.636 32.0999" stroke="#78A2A9" stroke-width="4.95274" stroke-linecap="round"/>
</g>
<g style="mix-blend-mode:multiply" opacity="0.12">
<path d="M27.9748 108.802L57.0622 79.489" stroke="#78A2A9" stroke-width="4.95274" stroke-linecap="round"/>
</g>
<g style="mix-blend-mode:multiply" opacity="0.12">
<path d="M70.0492 138.733L99.1366 109.419" stroke="#78A2A9" stroke-width="4.95274" stroke-linecap="round"/>
</g>
<g style="mix-blend-mode:multiply" opacity="0.12">
<path d="M114.599 96.3313L143.686 67.0181" stroke="#78A2A9" stroke-width="4.95274" stroke-linecap="round"/>
</g>
<g style="mix-blend-mode:multiply" opacity="0.12">
<path d="M135.223 134.896L164.311 105.582" stroke="#78A2A9" stroke-width="4.95274" stroke-linecap="round"/>
</g>
<g style="mix-blend-mode:multiply" opacity="0.12">
<path d="M35.3998 182.285L64.4872 152.971" stroke="#78A2A9" stroke-width="4.95274" stroke-linecap="round"/>
</g>
<g style="mix-blend-mode:multiply" opacity="0.12">
<path d="M177.298 152.163L206.385 122.85" stroke="#78A2A9" stroke-width="4.95274" stroke-linecap="round"/>
</g>
<g style="mix-blend-mode:multiply" opacity="0.12">
<path d="M57.6745 174.802L86.7618 145.489" stroke="#78A2A9" stroke-width="4.95274" stroke-linecap="round"/>
</g>
<g style="mix-blend-mode:multiply" opacity="0.12">
<path d="M111.299 198.363L140.386 169.05" stroke="#78A2A9" stroke-width="4.95274" stroke-linecap="round"/>
</g>
<g style="mix-blend-mode:multiply" opacity="0.12">
<path d="M112.949 208.263L142.036 178.95" stroke="#78A2A9" stroke-width="4.95274" stroke-linecap="round"/>
</g>
<g style="mix-blend-mode:multiply" opacity="0.12">
<path d="M169.048 148.863L198.135 119.55" stroke="#78A2A9" stroke-width="4.95274" stroke-linecap="round"/>
</g>
<g style="mix-blend-mode:multiply" opacity="0.12">
<path d="M142.648 143.913L171.736 114.6" stroke="#78A2A9" stroke-width="4.95274" stroke-linecap="round"/>
</g>
</g>
<g style="mix-blend-mode:lighten" opacity="0.12">
<path d="M45.378 133.641C55.481 158.289 79.7124 175.649 107.998 175.649C112.014 175.649 115.947 175.3 119.77 174.629" stroke="white" stroke-width="3.3" stroke-linecap="round"/>
</g>
<g style="mix-blend-mode:lighten" opacity="0.12">
<path d="M170.237 134.555C172.962 128.174 174.736 121.29 175.378 114.08" stroke="white" stroke-width="3.3" stroke-linecap="round"/>
</g>
<path opacity="0.4" d="M73.2841 166.075C83.4328 172.155 95.3075 175.649 107.998 175.649" stroke="white" stroke-width="3.30183" stroke-linecap="round" stroke-linejoin="round"/>
<path opacity="0.2" d="M169.595 79.9909C158.945 56.6062 135.37 40.3499 107.999 40.3499C80.6269 40.3499 57.052 56.6062 46.4019 79.9909" stroke="#64788F" stroke-width="3.30183" stroke-linecap="round" stroke-linejoin="round"/>
<path opacity="0.2" d="M73.2841 49.9241C83.4328 43.8445 95.3075 40.3499 107.998 40.3499C120.689 40.3499 132.564 43.8445 142.713 49.9241" stroke="#64788F" stroke-width="3.30183" stroke-linecap="round" stroke-linejoin="round"/>
<path opacity="0.4" d="M183.898 108C183.898 66.0814 149.917 32.0999 107.999 32.0999C66.081 32.0999 32.1 66.0814 32.1 108" stroke="white" stroke-width="3.30183" stroke-linecap="round" stroke-linejoin="round"/>
<path opacity="0.4" d="M147.865 186.126C152.969 187.653 158.112 187.889 163.535 186.022C171.594 183.247 177.004 176.616 179.527 169.116" stroke="#64788F" stroke-width="3.30183" stroke-linecap="round" stroke-linejoin="round"/>
<path opacity="0.4" d="M47.8877 153.826C61.82 172.116 83.6913 183.9 108.284 183.9" stroke="#64788F" stroke-width="3.30183" stroke-linecap="round" stroke-linejoin="round"/>
<path opacity="0.4" d="M155.023 136.05C140.899 136.05 129.448 147.5 129.448 161.625" stroke="white" stroke-width="3.30183" stroke-linecap="round" stroke-linejoin="round"/>
<g filter="url(#filter0_d_503_16554)">
<path fill-rule="evenodd" clip-rule="evenodd" d="M153.937 149.181C154.488 148.473 155.558 148.473 156.109 149.181L165.131 160.78C165.517 161.277 165.517 161.973 165.131 162.469L156.109 174.069C155.558 174.777 154.488 174.777 153.937 174.069L144.916 162.469C144.529 161.973 144.529 161.277 144.916 160.78L153.937 149.181Z" fill="black" fill-opacity="0.01"/>
</g>
<g filter="url(#filter1_i_503_16554)">
<path fill-rule="evenodd" clip-rule="evenodd" d="M153.937 149.181C154.488 148.473 155.558 148.473 156.109 149.181L165.131 160.78C165.517 161.277 165.517 161.973 165.131 162.469L156.109 174.069C155.558 174.777 154.488 174.777 153.937 174.069L144.916 162.469C144.529 161.973 144.529 161.277 144.916 160.78L153.937 149.181Z" fill="url(#paint1_linear_503_16554)"/>
</g>
<path fill-rule="evenodd" clip-rule="evenodd" d="M153.937 149.181C154.488 148.473 155.558 148.473 156.109 149.181L165.131 160.78C165.517 161.277 165.517 161.973 165.131 162.469L156.109 174.069C155.558 174.777 154.488 174.777 153.937 174.069L144.916 162.469C144.529 161.973 144.529 161.277 144.916 160.78L153.937 149.181Z" stroke="#E1EAF6" stroke-width="3.30183" stroke-linecap="round" stroke-linejoin="round"/>
<defs>
<filter id="filter0_d_503_16554" x="141.626" y="148.65" width="26.795" height="31.9504" filterUnits="userSpaceOnUse" color-interpolation-filters="sRGB">
<feFlood flood-opacity="0" result="BackgroundImageFix"/>
<feColorMatrix in="SourceAlpha" type="matrix" values="0 0 0 0 0 0 0 0 0 0 0 0 0 0 0 0 0 0 127 0" result="hardAlpha"/>
<feOffset dy="3"/>
<feGaussianBlur stdDeviation="1.5"/>
<feColorMatrix type="matrix" values="0 0 0 0 0.0196078 0 0 0 0 0.443137 0 0 0 0 0.643137 0 0 0 0.2 0"/>
<feBlend mode="normal" in2="BackgroundImageFix" result="effect1_dropShadow_503_16554"/>
<feBlend mode="normal" in="SourceGraphic" in2="effect1_dropShadow_503_16554" result="shape"/>
</filter>
<filter id="filter1_i_503_16554" x="142.975" y="146.999" width="24.0968" height="32.2524" filterUnits="userSpaceOnUse" color-interpolation-filters="sRGB">
<feFlood flood-opacity="0" result="BackgroundImageFix"/>
<feBlend mode="normal" in="SourceGraphic" in2="BackgroundImageFix" result="shape"/>
<feColorMatrix in="SourceAlpha" type="matrix" values="0 0 0 0 0 0 0 0 0 0 0 0 0 0 0 0 0 0 127 0" result="hardAlpha"/>
<feOffset dy="3"/>
<feGaussianBlur stdDeviation="1.5"/>
<feComposite in2="hardAlpha" operator="arithmetic" k2="-1" k3="1"/>
<feColorMatrix type="matrix" values="0 0 0 0 0.478431 0 0 0 0 0.537255 0 0 0 0 0.623529 0 0 0 1 0"/>
<feBlend mode="normal" in2="shape" result="effect1_innerShadow_503_16554"/>
</filter>
<linearGradient id="paint0_linear_503_16554" x1="30.4498" y1="30.4497" x2="30.4498" y2="188.849" gradientUnits="userSpaceOnUse">
<stop stop-color="#C6D1E4"/>
<stop offset="1" stop-color="#A4B1C4"/>
</linearGradient>
<linearGradient id="paint1_linear_503_16554" x1="144.259" y1="147.784" x2="144.259" y2="175.465" gradientUnits="userSpaceOnUse">
<stop stop-color="#A3B0C5"/>
<stop offset="1" stop-color="#7A8AA1"/>
</linearGradient>
</defs>
</svg>
