<svg width="216" height="216" viewBox="0 0 216 216" fill="none" xmlns="http://www.w3.org/2000/svg">
<path fill-rule="evenodd" clip-rule="evenodd" d="M108 185.55C115.232 185.55 122.233 184.56 128.874 182.708C133.656 187.52 140.28 190.5 147.6 190.5C162.181 190.5 174 178.68 174 164.1C174 160.004 173.068 156.126 171.403 152.666C180.315 140.039 185.55 124.631 185.55 108C185.55 65.17 150.83 30.4497 108 30.4497C65.1706 30.4497 30.4503 65.17 30.4503 108C30.4503 150.829 65.1706 185.55 108 185.55ZM122.53 172.395C117.855 173.445 112.992 173.999 108 173.999C71.5495 173.999 42.0003 144.45 42.0003 107.999C42.0003 71.5485 71.5495 41.9993 108 41.9993C144.451 41.9993 174 71.5485 174 107.999C174 120.964 170.262 133.056 163.804 143.256C159.331 139.774 153.708 137.7 147.6 137.7C133.02 137.7 121.2 149.519 121.2 164.1C121.2 166.997 121.667 169.786 122.53 172.395Z" fill="url(#paint0_linear_503_16553)"/>
<mask id="mask0_503_16553" style="mask-type:luminance" maskUnits="userSpaceOnUse" x="30" y="30" width="156" height="161">
<path fill-rule="evenodd" clip-rule="evenodd" d="M108 185.55C115.232 185.55 122.233 184.56 128.874 182.708C133.656 187.52 140.28 190.5 147.6 190.5C162.181 190.5 174 178.68 174 164.1C174 160.004 173.068 156.126 171.403 152.666C180.315 140.039 185.55 124.631 185.55 108C185.55 65.17 150.83 30.4497 108 30.4497C65.1706 30.4497 30.4503 65.17 30.4503 108C30.4503 150.829 65.1706 185.55 108 185.55ZM122.53 172.395C117.855 173.445 112.992 173.999 108 173.999C71.5495 173.999 42.0003 144.45 42.0003 107.999C42.0003 71.5485 71.5495 41.9993 108 41.9993C144.451 41.9993 174 71.5485 174 107.999C174 120.964 170.262 133.056 163.804 143.256C159.331 139.774 153.708 137.7 147.6 137.7C133.02 137.7 121.2 149.519 121.2 164.1C121.2 166.997 121.667 169.786 122.53 172.395Z" fill="white"/>
</mask>
<g mask="url(#mask0_503_16553)">
<g style="mix-blend-mode:multiply" opacity="0.2">
<path d="M118.405 159.361C121.624 156.142 126.844 156.142 130.064 159.361C133.283 162.581 133.283 167.801 130.064 171.02L100.896 200.189C97.6762 203.408 92.4563 203.408 89.2368 200.189C86.0173 196.969 86.0173 191.749 89.2368 188.53L118.405 159.361Z" stroke="#EBB570" stroke-width="3.31183"/>
</g>
<g style="mix-blend-mode:multiply" opacity="0.2">
<path d="M121.279 163.615C122.452 162.442 124.353 162.442 125.525 163.615C126.698 164.787 126.698 166.689 125.525 167.861L93.6112 199.775C92.4387 200.948 90.5377 200.948 89.3652 199.775C88.1927 198.603 88.1927 196.702 89.3652 195.529L121.279 163.615Z" stroke="#EBB570" stroke-width="3.31183"/>
</g>
<g style="mix-blend-mode:multiply" opacity="0.2">
<path d="M52.405 106.561C55.6245 103.342 60.8443 103.342 64.0639 106.561C67.2834 109.781 67.2834 115.001 64.0639 118.22L34.8957 147.388C31.6762 150.608 26.4563 150.608 23.2368 147.388C20.0173 144.169 20.0173 138.949 23.2368 135.729L52.405 106.561Z" stroke="#EBB570" stroke-width="3.31183"/>
</g>
<g style="mix-blend-mode:multiply" opacity="0.2">
<path d="M55.2793 110.815C56.4518 109.642 58.3528 109.642 59.5253 110.815C60.6978 111.987 60.6978 113.888 59.5253 115.061L27.6112 146.975C26.4387 148.147 24.5377 148.147 23.3652 146.975C22.1926 145.802 22.1926 143.901 23.3652 142.729L55.2793 110.815Z" stroke="#EBB570" stroke-width="3.31183"/>
</g>
<g style="mix-blend-mode:multiply" opacity="0.2">
<path d="M121.027 27.6393C124.26 24.4108 129.497 24.4108 132.729 27.6393L145.504 40.3985C148.742 43.6327 148.742 48.8807 145.504 52.1149L76.8235 120.71C73.5909 123.939 68.3542 123.939 65.1217 120.71L52.3466 107.951C49.1084 104.717 49.1084 99.4689 52.3466 96.2347L121.027 27.6393Z" stroke="#EBB570" stroke-width="3.31183"/>
</g>
<g style="mix-blend-mode:multiply" opacity="0.2">
<path d="M120.148 42.1617C122.985 39.328 127.581 39.328 130.419 42.1616C133.261 45.0003 133.261 49.6064 130.419 52.4451L69.25 113.538C66.4128 116.371 61.8165 116.371 58.9793 113.538C56.1371 110.699 56.1371 106.093 58.9793 103.254L120.148 42.1617Z" stroke="#EBB570" stroke-width="3.31183"/>
</g>
<g style="mix-blend-mode:multiply" opacity="0.2">
<mask id="path-9-inside-1_503_16553" fill="white">
<path fill-rule="evenodd" clip-rule="evenodd" d="M89.2893 167.28C85.4301 163.415 85.4301 157.155 89.2893 153.29L166.433 76.0298C170.297 72.1607 176.565 72.156 180.434 76.0193L196.011 91.6201C199.871 95.485 200.135 98.3601 196.275 102.225L164.1 133.575"/>
</mask>
<path d="M89.2893 153.29L91.6329 155.63L89.2893 153.29ZM166.433 76.0298L164.09 73.6897L166.433 76.0298ZM180.434 76.0193L182.778 73.6792L182.774 73.6757L180.434 76.0193ZM196.011 91.6201L198.355 89.28L198.355 89.28L196.011 91.6201ZM196.275 102.225L198.587 104.597L198.603 104.581L198.619 104.565L196.275 102.225ZM91.6329 164.94C89.0647 162.368 89.0647 158.202 91.6329 155.63L86.9457 150.95C81.7955 156.108 81.7955 164.462 86.9457 169.62L91.6329 164.94ZM91.6329 155.63L168.777 78.3698L164.09 73.6897L86.9457 150.95L91.6329 155.63ZM168.777 78.3698C171.348 75.7951 175.519 75.7919 178.094 78.3628L182.774 73.6757C177.611 68.52 169.245 68.5263 164.09 73.6897L168.777 78.3698ZM178.091 78.3593L193.668 93.9601L198.355 89.28L182.778 73.6792L178.091 78.3593ZM193.668 93.9601C195.447 95.7414 195.713 96.66 195.729 97.0521C195.74 97.3538 195.63 98.1843 193.932 99.885L198.619 104.565C200.78 102.401 202.467 99.8613 202.347 96.793C202.23 93.8151 200.436 91.3637 198.355 89.28L193.668 93.9601ZM193.964 99.853L161.789 131.203L166.412 135.947L198.587 104.597L193.964 99.853Z" fill="#EBB570" mask="url(#path-9-inside-1_503_16553)"/>
</g>
<g style="mix-blend-mode:multiply" opacity="0.2">
<mask id="path-11-inside-2_503_16553" fill="white">
<path fill-rule="evenodd" clip-rule="evenodd" d="M97.3542 160.282L164.728 92.8069C168.563 88.9664 174.785 88.9617 178.626 92.7964C178.629 92.7999 178.633 92.8034 178.636 92.8069C182.478 96.6549 182.478 102.888 178.636 106.735L157.376 128.028"/>
</mask>
<path d="M164.728 92.8069L167.072 95.1469L164.728 92.8069ZM178.626 92.7964L176.286 95.14L178.626 92.7964ZM178.636 106.735L176.293 104.395L178.636 106.735ZM99.6978 162.622L167.072 95.1469L162.385 90.4668L95.0106 157.942L99.6978 162.622ZM167.072 95.1469C169.614 92.6008 173.739 92.5977 176.286 95.14L180.966 90.4529C175.831 85.3257 167.512 85.332 162.385 90.4668L167.072 95.1469ZM176.286 95.14C176.288 95.1423 176.29 95.1446 176.293 95.1469L180.98 90.4668C180.975 90.4622 180.97 90.4575 180.966 90.4529L176.286 95.14ZM176.293 95.1469C178.844 97.702 178.844 101.84 176.293 104.395L180.98 109.076C186.113 103.935 186.113 95.6077 180.98 90.4668L176.293 95.1469ZM176.293 104.395L155.032 125.688L159.72 130.368L180.98 109.076L176.293 104.395Z" fill="#EBB570" mask="url(#path-11-inside-2_503_16553)"/>
</g>
<g style="mix-blend-mode:multiply" opacity="0.2">
<mask id="path-13-inside-3_503_16553" fill="white">
<path fill-rule="evenodd" clip-rule="evenodd" d="M-1.64583 127.282L65.7284 59.8069C69.5631 55.9664 75.7852 55.9617 79.6257 59.7964C79.6291 59.7999 79.6326 59.8034 79.6361 59.8069C83.4783 63.6549 83.4783 69.8875 79.6361 73.7355L58.376 95.0276"/>
</mask>
<path d="M65.7284 59.8069L68.072 62.1469L65.7284 59.8069ZM79.6257 59.7964L77.2856 62.14L79.6257 59.7964ZM79.6361 73.7355L77.2925 71.3954L79.6361 73.7355ZM0.697748 129.622L68.072 62.1469L63.3848 57.4668L-3.98941 124.942L0.697748 129.622ZM68.072 62.1469C70.6143 59.6008 74.7394 59.5977 77.2856 62.14L81.9657 57.4529C76.8309 52.3257 68.5119 52.332 63.3848 57.4668L68.072 62.1469ZM77.2856 62.14C77.2879 62.1423 77.2902 62.1446 77.2925 62.1469L81.9797 57.4668C81.975 57.4622 81.9704 57.4575 81.9657 57.4529L77.2856 62.14ZM77.2925 62.1469C79.8437 64.702 79.8437 68.8404 77.2925 71.3954L81.9797 76.0756C87.1129 70.9346 87.1129 62.6077 81.9797 57.4668L77.2925 62.1469ZM77.2925 71.3954L56.0324 92.6875L60.7195 97.3677L81.9797 76.0756L77.2925 71.3954Z" fill="#EBB570" mask="url(#path-13-inside-3_503_16553)"/>
</g>
</g>
<path opacity="0.2" d="M43.4635 87.6527C52.1 60.2333 77.728 40.3499 108 40.3499C138.272 40.3499 163.9 60.2333 172.537 87.6527" stroke="#D99139" stroke-width="3.31183" stroke-linecap="round" stroke-linejoin="round"/>
<path opacity="0.2" d="M73.2852 49.9241C83.4341 43.8446 95.309 40.3499 108 40.3499C120.691 40.3499 132.566 43.8446 142.715 49.9241" stroke="#D99139" stroke-width="3.31183" stroke-linecap="round" stroke-linejoin="round"/>
<path d="M139.513 187.484C144.59 189.1 149.728 189.426 155.182 187.654C163.289 185.02 168.814 178.484 171.467 171.03" stroke="#D99139" stroke-width="3.31183" stroke-linecap="round" stroke-linejoin="round"/>
<path d="M47.8885 153.826C61.821 172.116 83.6926 183.9 108.285 183.9C112.519 183.9 116.672 183.551 120.718 182.879" stroke="#D99139" stroke-width="3.31183" stroke-linecap="round" stroke-linejoin="round"/>
<path opacity="0.4" d="M183.9 108C183.9 66.0814 149.918 32.0999 108 32.0999C66.0816 32.0999 32.1 66.0814 32.1 108" stroke="white" stroke-width="3.31183" stroke-linecap="round" stroke-linejoin="round"/>
<path opacity="0.6" d="M162.45 144.3C158.121 141.194 153.335 139.296 147.6 139.296C139.076 139.296 131.802 143.805 126.975 150.075" stroke="#F8DDB4" stroke-width="3.31183" stroke-linecap="round"/>
<path opacity="0.8" d="M147.6 139.296C142.648 139.296 137.7 141 134.4 143.475" stroke="#FFECD0" stroke-width="3.31183" stroke-linecap="round"/>
<path opacity="0.2" d="M43.0366 126.937C51.2273 155.082 77.2118 175.649 108 175.649C112.015 175.649 115.949 175.3 119.772 174.629" stroke="#D99139" stroke-width="3.31183" stroke-linecap="round" stroke-linejoin="round"/>
<path opacity="0.2" d="M166.886 141.324C169.516 136.688 171.614 131.71 173.097 126.473" stroke="#D99139" stroke-width="3.31183" stroke-linecap="round" stroke-linejoin="round"/>
<path opacity="0.3" d="M73.2851 166.075C83.434 172.155 95.3089 175.649 108 175.649" stroke="white" stroke-width="3.31183" stroke-linecap="round" stroke-linejoin="round"/>
<g opacity="0.4" filter="url(#filter0_d_503_16553)">
<path fill-rule="evenodd" clip-rule="evenodd" d="M154.903 149.25C154.903 149.25 153.263 149.25 150.803 150.794C149.236 151.777 148.334 153.073 147.886 153.885C147.765 153.882 147.644 153.881 147.522 153.881C140.275 153.881 134.4 158.719 134.4 164.687C134.4 170.656 140.275 175.494 147.522 175.494C154.769 175.494 160.644 170.656 160.644 164.687C160.644 161.035 158.444 157.805 155.075 155.849C155.044 155.726 154.988 155.585 154.903 155.425C153.263 152.338 154.903 149.25 154.903 149.25Z" fill="black" fill-opacity="0.01"/>
</g>
<g filter="url(#filter1_i_503_16553)">
<path fill-rule="evenodd" clip-rule="evenodd" d="M154.903 149.25C154.903 149.25 153.263 149.25 150.803 150.794C149.236 151.777 148.334 153.073 147.886 153.885C147.765 153.882 147.644 153.881 147.522 153.881C140.275 153.881 134.4 158.719 134.4 164.687C134.4 170.656 140.275 175.494 147.522 175.494C154.769 175.494 160.644 170.656 160.644 164.687C160.644 161.203 158.641 158.104 155.532 156.127C155.259 155.882 155.011 155.628 154.903 155.425C153.263 152.338 154.903 149.25 154.903 149.25Z" fill="url(#paint1_linear_503_16553)"/>
</g>
<path d="M150.803 150.794L151.681 152.193L151.681 152.193L150.803 150.794ZM154.903 149.25L156.362 150.025C156.635 149.513 156.618 148.896 156.319 148.399C156.021 147.902 155.483 147.598 154.903 147.598V149.25ZM147.886 153.885L147.849 155.537C148.464 155.551 149.035 155.222 149.332 154.684L147.886 153.885ZM155.532 156.127L154.428 157.357C154.496 157.418 154.569 157.473 154.646 157.522L155.532 156.127ZM154.903 155.425L153.444 156.2L153.444 156.2L154.903 155.425ZM151.681 152.193C152.769 151.511 153.642 151.19 154.205 151.039C154.487 150.963 154.694 150.929 154.814 150.914C154.874 150.906 154.913 150.903 154.928 150.902C154.936 150.902 154.938 150.902 154.934 150.902C154.932 150.902 154.928 150.902 154.923 150.902C154.92 150.902 154.918 150.902 154.914 150.902C154.913 150.902 154.911 150.902 154.909 150.902C154.908 150.902 154.907 150.902 154.906 150.902C154.906 150.902 154.905 150.902 154.905 150.902C154.904 150.902 154.903 150.902 154.903 149.25C154.903 147.598 154.903 147.598 154.902 147.598C154.901 147.598 154.901 147.598 154.9 147.598C154.899 147.598 154.898 147.598 154.897 147.598C154.895 147.598 154.892 147.598 154.89 147.598C154.885 147.598 154.88 147.598 154.874 147.598C154.863 147.598 154.85 147.598 154.835 147.599C154.806 147.6 154.77 147.601 154.728 147.604C154.644 147.609 154.535 147.618 154.403 147.635C154.138 147.668 153.782 147.73 153.347 147.847C152.474 148.082 151.297 148.533 149.925 149.394L151.681 152.193ZM149.332 154.684C149.694 154.028 150.424 152.982 151.681 152.193L149.925 149.394C148.047 150.572 146.974 152.118 146.439 153.087L149.332 154.684ZM147.522 155.533C147.631 155.533 147.74 155.535 147.849 155.537L147.923 152.233C147.79 152.23 147.656 152.229 147.522 152.229V155.533ZM136.053 164.687C136.053 159.917 140.873 155.533 147.522 155.533V152.229C139.677 152.229 132.748 157.521 132.748 164.687H136.053ZM147.522 173.841C140.873 173.841 136.053 169.457 136.053 164.687H132.748C132.748 171.854 139.677 177.146 147.522 177.146V173.841ZM158.992 164.687C158.992 169.457 154.171 173.841 147.522 173.841V177.146C155.367 177.146 162.296 171.854 162.296 164.687H158.992ZM154.646 157.522C157.379 159.259 158.992 161.878 158.992 164.687H162.296C162.296 160.528 159.904 156.948 156.419 154.733L154.646 157.522ZM153.444 156.2C153.707 156.694 154.17 157.125 154.428 157.357L156.636 154.898C156.522 154.796 156.434 154.71 156.374 154.644C156.344 154.611 156.329 154.592 156.324 154.586C156.318 154.578 156.336 154.6 156.362 154.65L153.444 156.2ZM154.903 149.25C153.444 148.475 153.444 148.475 153.443 148.476C153.443 148.476 153.443 148.477 153.443 148.477C153.442 148.478 153.442 148.479 153.441 148.48C153.44 148.482 153.439 148.484 153.438 148.487C153.435 148.491 153.433 148.497 153.429 148.503C153.423 148.516 153.415 148.531 153.406 148.55C153.387 148.587 153.363 148.637 153.335 148.698C153.279 148.819 153.207 148.987 153.128 149.194C152.971 149.608 152.785 150.191 152.661 150.892C152.414 152.288 152.4 154.234 153.444 156.2L156.362 154.65C155.767 153.528 155.752 152.387 155.915 151.468C155.996 151.011 156.118 150.629 156.217 150.367C156.267 150.237 156.309 150.139 156.337 150.08C156.351 150.05 156.36 150.03 156.365 150.021C156.367 150.016 156.368 150.014 156.368 150.015C156.368 150.015 156.367 150.016 156.366 150.018C156.366 150.019 156.365 150.02 156.365 150.021C156.364 150.022 156.364 150.022 156.364 150.023C156.363 150.023 156.363 150.024 156.363 150.024C156.363 150.025 156.362 150.025 154.903 149.25Z" fill="#FFECD0"/>
<ellipse cx="142.602" cy="163.144" rx="1.64024" ry="1.54375" fill="#F7DCB3"/>
<ellipse cx="152.443" cy="163.144" rx="1.64024" ry="1.54375" fill="#F7DCB3"/>
<defs>
<filter id="filter0_d_503_16553" x="128.4" y="146.25" width="38.2438" height="38.2437" filterUnits="userSpaceOnUse" color-interpolation-filters="sRGB">
<feFlood flood-opacity="0" result="BackgroundImageFix"/>
<feColorMatrix in="SourceAlpha" type="matrix" values="0 0 0 0 0 0 0 0 0 0 0 0 0 0 0 0 0 0 127 0" result="hardAlpha"/>
<feOffset dy="3"/>
<feGaussianBlur stdDeviation="3"/>
<feColorMatrix type="matrix" values="0 0 0 0 0.886275 0 0 0 0 0.65098 0 0 0 0 0.372549 0 0 0 1 0"/>
<feBlend mode="normal" in2="BackgroundImageFix" result="effect1_dropShadow_503_16553"/>
<feBlend mode="normal" in="SourceGraphic" in2="effect1_dropShadow_503_16553" result="shape"/>
</filter>
<filter id="filter1_i_503_16553" x="132.748" y="147.598" width="29.5484" height="32.5483" filterUnits="userSpaceOnUse" color-interpolation-filters="sRGB">
<feFlood flood-opacity="0" result="BackgroundImageFix"/>
<feBlend mode="normal" in="SourceGraphic" in2="BackgroundImageFix" result="shape"/>
<feColorMatrix in="SourceAlpha" type="matrix" values="0 0 0 0 0 0 0 0 0 0 0 0 0 0 0 0 0 0 127 0" result="hardAlpha"/>
<feOffset dy="3"/>
<feGaussianBlur stdDeviation="1.5"/>
<feComposite in2="hardAlpha" operator="arithmetic" k2="-1" k3="1"/>
<feColorMatrix type="matrix" values="0 0 0 0 0.801791 0 0 0 0 0.623822 0 0 0 0 0.41026 0 0 0 1 0"/>
<feBlend mode="normal" in2="shape" result="effect1_innerShadow_503_16553"/>
</filter>
<linearGradient id="paint0_linear_503_16553" x1="30.4503" y1="30.4497" x2="30.4503" y2="190.5" gradientUnits="userSpaceOnUse">
<stop stop-color="#FDDA9D"/>
<stop offset="1" stop-color="#EFB35E"/>
</linearGradient>
<linearGradient id="paint1_linear_503_16553" x1="134.4" y1="149.25" x2="134.4" y2="175.494" gradientUnits="userSpaceOnUse">
<stop stop-color="#F6C280"/>
<stop offset="1" stop-color="#E2A65E"/>
</linearGradient>
</defs>
</svg>
